<?xml version="1.0" standalone="no"?>
<!DOCTYPE svg PUBLIC "-//W3C//DTD SVG 20010904//EN"
 "http://www.w3.org/TR/2001/REC-SVG-20010904/DTD/svg10.dtd">
<svg version="1.0" xmlns="http://www.w3.org/2000/svg"
 width="404.000000pt" height="600.000000pt" viewBox="0 0 404.000000 600.000000"
 preserveAspectRatio="xMidYMid meet">

<g transform="translate(0.000000,600.000000) scale(0.100000,-0.100000)"
fill="#000000" stroke="none">
<path d="M1795 5982 c-27 -10 -75 -33 -105 -50 -30 -17 -79 -37 -109 -46 -62
-18 -167 -21 -207 -6 -40 16 -42 4 -5 -34 l33 -34 -39 -12 c-50 -16 -93 -42
-93 -55 0 -6 -24 -24 -52 -42 -29 -17 -87 -67 -128 -112 -225 -240 -247 -268
-276 -342 -10 -24 -38 -67 -63 -95 -25 -29 -58 -66 -73 -84 -22 -26 -33 -31
-53 -26 -31 8 -31 -2 -1 -47 l24 -35 -23 -64 c-12 -34 -26 -81 -29 -102 -7
-37 -6 -39 10 -25 15 13 16 12 9 -11 -21 -69 -81 -137 -128 -147 -15 -3 -30
-9 -32 -13 -8 -12 59 -50 88 -50 24 0 24 -2 16 -37 -5 -21 -9 -53 -9 -71 0
-63 -61 -119 -164 -152 l-49 -16 35 -22 c20 -12 40 -22 47 -22 6 0 11 -4 11
-10 0 -5 -11 -10 -25 -10 -14 0 -25 -4 -25 -10 0 -5 5 -10 10 -10 6 0 3 -11
-7 -25 -10 -13 -27 -25 -39 -25 -45 0 -119 -35 -160 -75 -51 -48 -53 -64 -25
-190 16 -72 16 -86 3 -135 -15 -59 -10 -119 14 -165 30 -58 34 -106 15 -151
-26 -57 -82 -117 -132 -140 -40 -17 -41 -19 -18 -25 13 -4 39 -7 57 -8 17 -1
32 -5 32 -9 0 -15 -54 -61 -90 -76 l-35 -14 28 -11 c16 -6 53 -11 83 -11 30 0
54 -2 54 -4 0 -3 -5 -17 -11 -33 -11 -27 -26 -201 -35 -398 l-4 -100 25 47
c36 67 48 71 39 12 -15 -102 -3 -409 15 -388 4 5 13 28 20 52 6 23 15 42 20
42 4 0 11 -51 14 -112 12 -234 78 -432 209 -626 27 -41 51 -72 53 -70 2 2 -2
42 -7 89 -6 48 -7 112 -3 145 l8 59 22 -67 c56 -161 173 -318 307 -409 62 -43
65 -43 44 -1 -7 15 -17 38 -21 52 -6 22 -3 20 24 -12 41 -48 116 -102 173
-125 35 -14 63 -37 113 -97 l67 -78 -6 -51 c-8 -55 -25 -94 -64 -146 l-25 -34
45 5 45 5 10 -66 c13 -83 53 -174 64 -145 6 14 8 15 8 3 1 -8 13 -39 28 -69
20 -41 28 -49 33 -36 5 15 11 10 35 -24 16 -23 45 -56 65 -73 20 -18 51 -59
69 -92 39 -74 100 -146 108 -127 4 10 9 8 19 -6 19 -28 132 -102 147 -97 7 2
39 -13 72 -34 58 -36 60 -38 59 -79 l-1 -41 50 27 c28 15 71 45 96 68 48 42
103 70 119 60 11 -7 75 39 116 83 19 20 32 27 37 20 9 -15 85 80 113 141 12
25 43 65 69 89 27 25 56 59 64 75 14 27 17 28 23 12 6 -17 7 -17 22 5 8 13 21
41 29 62 7 22 18 36 25 33 22 -8 64 106 64 175 l0 36 40 -10 c22 -6 42 -8 46
-4 4 3 -7 22 -24 42 -33 36 -62 117 -62 170 0 25 14 44 78 106 42 42 92 81
110 87 49 17 140 80 174 123 17 22 33 37 36 35 2 -2 -6 -26 -17 -52 -12 -26
-20 -48 -19 -50 10 -8 120 81 186 150 83 88 137 178 177 294 l22 67 8 -59 c4
-33 3 -97 -3 -145 -5 -47 -9 -87 -7 -89 2 -2 26 29 53 70 130 192 197 391 209
621 3 59 9 110 13 112 4 2 13 -15 20 -38 8 -23 17 -46 21 -51 18 -21 30 301
14 393 -9 55 5 48 40 -17 l25 -47 -4 100 c-9 197 -24 371 -35 398 -6 16 -11
30 -11 33 0 2 24 4 54 4 30 0 67 5 83 11 l28 11 -35 14 c-36 15 -90 61 -90 76
0 4 15 8 33 9 17 1 43 4 56 8 23 6 22 8 -18 25 -50 23 -106 83 -132 140 -19
45 -15 93 15 151 24 46 29 106 14 165 -13 49 -13 63 3 135 28 126 26 142 -25
190 -41 40 -115 75 -160 75 -24 1 -66 49 -44 51 7 0 0 6 -16 14 l-30 13 41 21
c55 27 59 37 21 45 -100 20 -171 86 -182 167 -4 30 -10 64 -13 77 -4 18 -1 22
18 22 27 0 89 35 89 50 0 5 -9 10 -20 10 -52 0 -111 52 -135 119 -19 54 -19
56 0 41 23 -19 19 12 -14 110 l-29 85 29 33 c16 18 29 36 29 41 0 5 -18 11
-40 15 -33 5 -45 14 -66 47 -14 23 -42 60 -63 83 -21 22 -45 62 -55 89 -19 51
-94 150 -127 167 -10 6 -31 30 -45 53 -35 56 -155 170 -226 214 -32 20 -55 39
-53 43 6 10 -74 50 -98 50 -25 0 -28 16 -6 36 12 10 25 27 31 38 9 16 8 18 -8
12 -11 -4 -43 -12 -72 -17 -76 -15 -137 1 -271 69 -112 56 -117 57 -195 57
-45 -1 -94 -2 -111 -3 -16 -2 -66 0 -110 3 -64 4 -90 2 -130 -13z m287 -23
c54 2 112 -1 130 -5 32 -7 33 -8 8 -15 -21 -6 -22 -7 -5 -8 12 -1 75 -19 140
-42 96 -32 136 -41 197 -42 43 -1 78 -3 78 -5 0 -2 -18 -11 -39 -21 l-40 -17
62 -14 c55 -12 58 -14 32 -19 -27 -6 -26 -7 28 -24 31 -10 90 -40 132 -68 75
-50 107 -80 69 -65 -49 21 -54 16 -9 -8 28 -15 61 -36 75 -46 24 -19 24 -19
-32 0 -32 11 -70 20 -85 19 l-28 -1 25 -7 c48 -15 146 -69 196 -110 46 -36
134 -138 134 -154 0 -4 -28 9 -62 27 -88 47 -126 55 -53 11 33 -20 80 -54 105
-76 l45 -40 -35 6 c-35 6 -34 6 15 -24 56 -34 125 -90 88 -72 -12 6 -34 15
-50 21 l-28 10 25 -18 c14 -9 49 -39 78 -65 29 -26 66 -50 82 -54 37 -7 38
-20 5 -35 -23 -10 -29 -8 -66 28 -38 37 -37 34 15 -36 30 -41 60 -87 66 -104
9 -26 6 -25 -44 23 -63 59 -82 67 -37 16 38 -44 51 -69 87 -174 28 -82 60
-129 109 -158 18 -11 17 -12 -12 -12 -25 -1 -36 6 -54 32 -30 44 -90 106 -114
119 -11 6 2 -12 28 -41 51 -55 91 -133 102 -197 l6 -39 -31 55 c-32 57 -65 97
-37 45 9 -16 33 -66 52 -110 20 -44 48 -92 62 -107 32 -34 23 -36 -25 -6 -20
12 -32 16 -28 10 12 -20 101 -61 147 -68 34 -6 39 -9 24 -15 -67 -26 -171 4
-237 69 -39 37 -46 37 -27 -1 10 -20 8 -19 -17 4 -32 30 -103 79 -113 79 -4 0
21 -29 56 -64 71 -73 80 -96 28 -64 -53 31 -52 17 3 -29 45 -38 106 -111 148
-178 21 -33 20 -32 -65 27 -68 47 -82 48 -42 3 17 -19 38 -50 47 -68 15 -29
12 -28 -22 12 -40 46 -148 131 -167 131 -6 0 0 -12 14 -27 13 -14 -5 -3 -41
26 -36 28 -86 62 -112 75 -44 22 -46 24 -22 29 17 3 46 -6 82 -25 32 -15 75
-31 97 -34 l40 -5 -40 19 c-50 24 -98 64 -127 105 l-22 32 23 -20 c20 -17 18
-10 -14 60 -20 44 -40 84 -46 90 -24 24 -5 25 26 1 19 -15 35 -24 35 -21 0 3
-14 34 -32 68 -18 34 -33 70 -34 80 -2 30 -80 110 -153 158 -25 16 -40 29 -34
29 24 0 97 -32 139 -60 24 -16 44 -25 44 -21 0 15 -77 124 -117 166 -21 22
-63 62 -93 88 l-55 48 45 -16 c24 -9 55 -22 67 -31 13 -8 23 -11 23 -7 -1 11
-83 73 -134 101 l-41 23 35 -7 35 -6 -47 36 c-26 20 -76 50 -110 66 -66 31
-62 39 7 15 57 -20 55 -11 -7 24 -80 47 -153 72 -263 91 -77 13 -93 18 -70 23
17 3 -23 4 -88 3 -100 -3 -116 -1 -106 11 10 11 8 12 -15 3 -38 -14 -44 -13
-51 10 -3 11 -15 25 -26 31 -18 9 -19 7 -14 -14 9 -33 -6 -40 -49 -22 -47 20
-53 19 -32 -4 17 -19 16 -19 -101 -15 -70 2 -108 0 -93 -5 21 -7 15 -9 -35
-15 -125 -16 -220 -48 -311 -105 -56 -35 -56 -36 10 -16 57 17 72 14 24 -5
-35 -14 -168 -98 -168 -107 0 -2 15 -2 33 2 27 5 24 1 -23 -25 -30 -17 -73
-46 -95 -66 l-40 -35 34 16 c18 9 52 23 75 31 l41 14 -35 -27 c-92 -73 -188
-182 -230 -262 l-12 -24 32 23 c35 25 136 69 159 70 8 0 -13 -17 -45 -38 -60
-39 -152 -134 -135 -140 5 -2 -6 -29 -24 -60 -18 -31 -36 -68 -40 -82 l-7 -25
23 21 c46 40 46 33 3 -56 -49 -99 -52 -109 -27 -89 11 9 10 3 -6 -18 -23 -33
-91 -86 -133 -103 -17 -6 -18 -9 -6 -9 27 -1 108 29 151 56 22 13 36 20 33 14
-5 -7 2 -11 16 -11 17 0 8 -9 -35 -33 -32 -17 -81 -52 -109 -76 -42 -37 -48
-40 -32 -16 l19 29 -43 -24 c-23 -13 -70 -52 -102 -86 -66 -69 -78 -69 -27 -2
51 67 54 72 26 58 -13 -7 -45 -28 -72 -46 -26 -19 -47 -31 -47 -28 0 18 96
137 150 187 34 31 58 57 55 57 -3 0 -24 -9 -47 -21 l-40 -21 16 24 c9 13 42
49 73 82 52 52 54 57 24 41 -18 -9 -54 -35 -79 -58 -30 -28 -43 -35 -38 -22 4
11 11 27 14 35 3 8 -9 -2 -28 -23 -57 -66 -147 -98 -227 -82 l-38 8 50 12 c57
13 105 36 125 60 10 12 2 10 -24 -6 l-38 -22 34 49 c19 27 45 74 57 104 13 30
31 70 42 88 10 18 14 30 9 27 -6 -4 -24 -30 -41 -58 l-31 -52 7 37 c9 55 40
120 86 180 l41 53 -54 -55 c-29 -31 -61 -66 -70 -78 -18 -22 -86 -33 -73 -12
3 6 12 10 19 10 28 0 83 77 106 146 29 89 56 142 88 177 42 44 7 31 -43 -16
-25 -24 -45 -41 -45 -37 0 14 73 127 103 159 l32 34 -31 -21 c-17 -12 -37 -28
-44 -37 -17 -20 -33 -19 -55 5 -18 19 -17 20 6 20 29 0 56 17 127 82 30 26 58
48 64 48 6 0 9 3 6 6 -3 3 -26 -5 -49 -17 -61 -31 -35 -1 45 52 48 31 55 39
31 33 l-30 -7 33 35 c19 20 62 52 98 73 35 21 64 39 64 41 0 8 -89 -29 -122
-51 -51 -34 -55 -31 -23 13 73 97 169 174 274 218 45 19 51 23 29 24 -15 0
-51 -9 -80 -20 -64 -24 -48 -5 32 39 57 32 62 39 14 21 -25 -10 -26 -9 -13 6
25 31 144 102 204 122 53 18 56 21 30 24 -25 3 -20 6 29 18 l60 14 -31 13
c-52 21 -44 28 31 29 54 1 100 11 198 42 70 23 137 43 150 43 19 1 18 3 -7 9
l-30 7 30 7 c17 4 35 10 40 12 6 2 35 1 65 -3 30 -3 99 -5 152 -4z m-509 -899
c-58 -33 -65 -41 -30 -33 12 2 -7 -12 -43 -31 -36 -20 -78 -50 -95 -66 l-30
-31 60 25 c111 44 114 43 55 -13 -32 -29 -46 -48 -35 -45 12 3 1 -10 -25 -33
-24 -21 -66 -60 -93 -88 l-49 -50 23 43 c13 24 48 70 77 103 57 63 53 65 -38
19 -61 -31 -50 -7 38 80 52 52 100 89 147 113 85 44 110 48 38 7z m939 -7 c74
-39 148 -99 199 -164 30 -38 34 -64 6 -41 -7 6 -34 20 -60 31 l-48 21 51 -58
c28 -32 63 -78 77 -103 26 -44 26 -44 -48 26 -41 39 -87 81 -104 93 -21 16
-23 20 -7 12 41 -20 34 -4 -19 44 -28 25 -49 46 -46 46 6 0 70 -23 122 -44
l40 -16 -40 36 c-22 20 -65 49 -95 65 -30 17 -45 28 -32 25 33 -6 28 -1 -30
33 -73 42 -51 39 34 -6z m-1221 -478 c-17 -20 -47 -49 -66 -66 -20 -18 -33
-34 -30 -37 3 -3 -3 -14 -12 -24 -16 -18 -14 -17 28 1 69 32 75 25 22 -26 -27
-27 -60 -61 -72 -78 -18 -25 -20 -26 -10 -5 6 14 22 40 36 58 29 39 20 41 -30
7 -20 -14 -37 -23 -37 -20 0 16 36 74 63 103 27 28 28 32 11 32 -13 0 -5 8 24
25 24 13 55 34 69 45 38 29 39 25 4 -15z m1541 -30 c29 -17 37 -25 24 -25 -17
0 -16 -4 11 -32 33 -35 69 -98 56 -98 -5 0 -21 9 -38 20 -46 30 -49 24 -15
-26 18 -25 30 -47 27 -50 -2 -2 -17 14 -32 36 -15 22 -46 54 -69 70 -48 36
-26 41 43 9 l45 -20 -20 22 c-10 11 -17 24 -15 28 3 3 -14 20 -36 36 -23 17
-42 34 -42 39 -1 6 -11 21 -23 35 l-23 25 32 -22 c17 -12 51 -33 75 -47z
m-2232 -329 c-14 -13 -43 -34 -65 -46 l-40 -22 53 5 c44 3 50 2 40 -10 -6 -8
-25 -21 -42 -30 -27 -14 -29 -14 -18 -1 11 13 6 16 -37 22 -28 4 -52 10 -55
15 -3 4 20 15 52 24 31 9 73 27 92 41 45 32 51 32 20 2z m2954 -44 l59 -16
-29 -13 c-16 -6 -45 -12 -64 -13 -33 -1 -34 -1 -16 -15 33 -25 3 -16 -37 10
-20 14 -37 27 -37 29 0 2 24 1 53 -1 l52 -5 -54 34 c-30 18 -56 39 -59 46 -2
7 13 1 34 -13 21 -15 65 -34 98 -43z m-2492 45 c-28 -16 -19 -27 22 -28 25 0
19 -5 -34 -23 -60 -20 -110 -43 -110 -49 0 -2 28 -2 63 0 62 3 62 3 27 -11
-36 -13 -165 -100 -175 -116 -3 -5 14 -1 37 10 62 28 77 24 32 -9 -40 -29 -82
-71 -71 -71 4 0 28 13 54 29 27 16 62 32 78 36 l30 6 -30 -14 c-16 -8 -54 -31
-84 -51 -36 -24 -64 -36 -88 -36 -31 0 -34 -2 -23 -15 7 -8 37 -22 67 -31 l54
-16 -73 -77 c-40 -42 -82 -92 -92 -111 l-20 -34 49 39 49 40 -59 -70 c-32 -38
-81 -103 -108 -145 -45 -70 -58 -64 -15 8 11 17 16 32 12 32 -16 0 -123 -89
-193 -160 l-74 -75 28 55 c15 30 47 81 72 112 28 37 38 55 26 51 -16 -6 -17
-5 -4 13 8 10 33 39 55 63 38 41 34 48 -7 13 -9 -8 -19 -13 -22 -10 -9 8 101
132 148 167 26 19 45 36 43 39 -9 8 -151 -68 -203 -107 -29 -23 -53 -38 -53
-35 0 4 20 34 44 68 49 69 130 149 194 191 23 15 42 29 42 32 0 5 -39 -16 -70
-38 -14 -10 -43 -21 -65 -25 l-40 -6 40 27 c22 15 66 52 97 81 31 30 81 66
110 79 64 30 49 33 -24 5 l-53 -20 30 25 c17 14 66 44 110 66 52 26 69 38 48
34 -45 -9 -41 0 10 26 64 34 174 66 119 36z m2033 -33 c65 -32 67 -34 30 -28
-36 5 -32 1 40 -35 44 -21 94 -51 110 -65 l30 -25 -53 19 c-76 29 -84 24 -16
-10 33 -16 88 -57 123 -91 35 -34 78 -67 95 -75 l31 -13 -27 -1 c-14 0 -56 16
-92 35 -36 19 -66 33 -66 31 0 -2 19 -16 42 -31 84 -56 238 -222 238 -257 0
-5 -19 7 -42 27 -42 36 -205 122 -214 113 -2 -3 13 -17 34 -31 43 -31 96 -85
138 -142 l29 -39 -40 23 -40 24 46 -49 c25 -27 52 -58 60 -68 13 -18 13 -19
-10 -6 -21 11 -20 7 11 -31 43 -54 85 -121 99 -157 7 -20 -5 -11 -45 34 -49
54 -192 174 -208 174 -4 0 4 -19 17 -42 39 -72 39 -97 0 -33 -49 81 -78 118
-150 195 -59 63 -59 64 -13 27 25 -20 49 -37 53 -37 14 0 -83 125 -128 165
l-48 42 44 12 c24 7 56 21 71 31 l27 17 -43 5 c-28 3 -66 20 -108 48 -68 44
-48 46 30 3 l45 -25 -52 51 c-55 55 -52 62 15 31 23 -11 40 -15 37 -10 -10 16
-139 103 -175 116 -35 14 -35 14 28 11 34 -2 62 -2 62 0 0 6 -69 38 -120 54
-40 12 -48 17 -28 18 14 1 34 4 43 8 14 5 12 8 -11 20 l-29 13 30 -5 c17 -3
62 -22 100 -41z m-1392 20 c18 -9 40 -23 49 -31 9 -8 21 -12 27 -9 12 8 89
-51 110 -84 12 -19 6 -17 -27 13 -23 20 -44 37 -47 37 -3 0 -3 -12 1 -27 l6
-28 -21 30 c-11 17 -21 24 -21 17 0 -7 -13 2 -29 20 l-30 33 -12 -30 -12 -30
-7 30 c-3 17 -12 40 -19 53 -14 26 -10 27 32 6z m697 -9 c-7 -8 -18 -32 -26
-52 -12 -34 -13 -35 -14 -11 0 32 -19 32 -56 -3 -15 -13 -24 -17 -20 -9 4 8
-4 2 -17 -14 l-25 -28 5 26 c7 34 1 33 -43 -6 -21 -18 -35 -26 -32 -18 7 22
101 91 116 85 8 -3 26 3 40 14 30 20 50 29 71 30 11 1 11 -2 1 -14z m-1025
-55 c8 -16 24 -34 35 -40 18 -10 19 -9 10 16 -9 23 -8 25 7 19 10 -4 46 -16
81 -25 35 -10 66 -21 70 -25 4 -4 -4 -4 -17 0 -12 4 -39 8 -60 9 -20 1 -42 5
-49 9 -15 10 -16 -5 0 -21 20 -20 -13 -15 -47 8 -37 24 -42 25 -48 3 -3 -10
-5 3 -6 30 0 26 1 47 4 47 2 0 11 -13 20 -30z m1345 -15 c0 -19 -4 -37 -10
-40 -5 -3 -10 1 -10 9 0 20 -3 20 -42 -4 -40 -24 -67 -27 -49 -6 11 13 6 14
-29 11 -23 -2 -56 -6 -73 -9 l-32 -6 30 15 c17 8 40 14 53 15 12 0 39 7 58 15
35 14 36 14 31 -6 -8 -29 14 -19 38 18 24 37 35 33 35 -12z m-1481 -78 l23
-22 -23 40 -23 40 39 -34 c48 -42 83 -57 171 -72 38 -6 85 -20 104 -29 33 -17
102 -80 87 -80 -4 0 -38 15 -75 34 -38 19 -93 41 -123 49 -62 18 -179 27 -179
15 0 -10 -41 -10 -56 0 -6 4 -18 21 -27 37 -18 33 -22 21 -7 -19 6 -17 6 -26
0 -26 -6 0 -10 5 -10 12 0 6 -2 9 -5 6 -3 -3 -1 -16 4 -29 7 -20 4 -27 -14
-41 -27 -21 -41 -10 -51 40 -8 39 0 41 20 5 15 -28 15 -27 16 27 0 39 7 65 22
90 l22 35 9 -45 c12 -61 26 -73 20 -16 -3 24 -2 57 2 73 7 27 8 26 20 -20 7
-27 22 -59 34 -70z m1634 -4 c4 10 7 32 7 49 0 30 1 31 20 13 26 -24 43 -80
37 -121 -7 -41 -2 -43 17 -6 l15 27 1 -31 c0 -16 -6 -39 -14 -49 -14 -19 -14
-19 -36 0 -15 13 -19 26 -15 43 4 16 2 21 -5 17 -8 -5 -9 5 -5 32 l7 38 -19
-35 c-14 -28 -25 -36 -52 -38 -18 -2 -31 0 -28 5 8 13 -121 4 -182 -14 -30 -8
-85 -30 -123 -49 -72 -36 -85 -34 -40 8 39 37 58 45 160 67 105 23 125 32 170
74 34 33 42 27 16 -13 l-16 -25 21 23 c11 13 26 43 33 65 l13 42 5 -70 c3 -45
8 -63 13 -52z m-727 69 c-9 -9 -24 -26 -32 -37 -14 -19 -14 -19 -3 5 15 32 41
62 47 55 3 -3 -2 -13 -12 -23z m-206 -14 c11 -18 20 -37 20 -43 -1 -5 -8 2
-16 18 -8 15 -19 27 -24 27 -6 0 -10 7 -10 15 0 23 8 18 30 -17z m-1547 -9
c33 -17 67 -51 61 -60 -3 -5 -1 -9 3 -9 9 0 93 -113 93 -124 0 -3 -18 -15 -41
-26 -60 -31 -111 -29 -155 6 -108 86 -134 96 -66 26 41 -42 112 -155 112 -178
0 -4 -21 23 -46 61 -49 76 -97 131 -129 147 -16 9 -18 8 -7 -3 13 -15 16 -57
4 -76 -5 -8 -16 10 -29 51 -17 51 -20 71 -12 99 11 42 23 53 86 77 56 22 95
25 126 9z m3390 -15 c74 -38 91 -83 62 -162 -9 -26 -19 -54 -22 -62 -4 -11 -7
-9 -14 9 -6 16 -6 35 0 53 l10 28 -25 -17 c-28 -18 -97 -105 -137 -173 -36
-61 -34 -43 4 32 17 34 54 85 81 115 60 63 50 70 -16 12 -64 -56 -107 -71
-162 -54 -23 7 -51 19 -63 27 -21 15 -21 16 30 84 65 88 89 114 114 125 27 12
98 3 138 -17z m-2186 -90 c28 -14 75 -45 102 -70 28 -25 51 -42 51 -37 -1 15
-35 54 -59 66 -13 7 -31 22 -39 35 -14 22 -14 22 14 7 16 -8 35 -15 42 -15 7
0 32 -10 55 -22 23 -12 47 -21 53 -20 6 1 30 -16 53 -37 34 -32 42 -35 36 -18
-4 12 -9 38 -11 57 -3 27 -2 30 5 15 5 -11 23 -33 40 -50 26 -24 34 -27 41
-15 7 11 11 8 21 -13 15 -34 26 -34 41 -2 12 26 24 32 30 15 3 -11 63 42 71
62 2 7 8 10 12 6 7 -6 2 -24 -21 -83 -5 -13 9 -5 39 23 26 23 52 42 60 42 7 0
30 9 52 20 22 11 46 20 55 20 9 0 26 7 38 16 12 8 22 12 22 8 0 -11 -42 -54
-53 -54 -10 0 -30 -22 -49 -55 -6 -11 11 0 38 24 50 45 174 111 207 111 28 0
10 -20 -39 -40 -61 -26 -101 -59 -108 -86 -6 -24 -48 -44 -54 -26 -2 6 -18 0
-39 -14 -20 -13 -40 -24 -44 -24 -11 0 -12 42 -1 56 4 5 -6 -4 -22 -20 -22
-23 -101 -61 -133 -66 -2 0 -3 12 -3 28 l-1 27 -15 -29 c-13 -22 -18 -26 -25
-15 -6 10 -9 10 -9 2 0 -7 -11 -13 -25 -13 -17 0 -25 6 -25 17 0 15 -2 14 -15
-3 -14 -19 -15 -18 -21 5 l-7 25 -9 -23 c-4 -13 -13 -20 -20 -17 -7 3 -31 11
-54 17 -25 8 -48 23 -60 41 -24 35 -37 36 -23 2 13 -37 4 -41 -38 -19 -20 11
-41 19 -47 17 -25 -8 -54 9 -59 35 -4 22 -20 36 -76 66 -39 21 -74 43 -77 49
-10 16 40 2 103 -28z m1520 -64 c35 -22 40 -29 26 -33 -10 -3 2 -5 27 -6 54
-1 43 -17 -19 -27 -31 -5 -42 -4 -37 4 4 6 -4 16 -16 23 -13 7 -34 21 -48 32
l-25 20 30 -6 30 -5 -30 25 c-24 20 -25 22 -6 13 13 -7 44 -25 68 -40z m-2128
20 l-24 -20 30 6 c26 5 23 1 -23 -29 -41 -27 -49 -36 -35 -40 10 -3 -2 -5 -27
-6 -25 0 -52 4 -60 9 -11 7 -6 10 20 10 22 0 30 3 22 8 -9 6 5 20 45 45 63 40
89 49 52 17z m250 -7 c-12 -15 -10 -15 9 1 49 42 178 27 284 -32 37 -21 47
-31 43 -47 -3 -11 -2 -14 1 -7 3 6 13 12 23 12 29 0 191 -58 240 -86 l46 -27
-29 31 -29 32 33 -10 c41 -12 77 -35 114 -74 l29 -31 -17 32 c-9 18 -16 34
-16 38 0 7 85 6 93 -1 3 -4 -1 -21 -10 -38 l-16 -31 29 31 c37 39 73 62 114
74 l33 10 -26 -28 c-33 -34 -36 -54 -4 -24 27 26 114 65 126 57 5 -3 12 -1 15
4 9 14 106 42 119 35 7 -4 9 -4 5 1 -15 16 135 89 204 99 39 6 48 4 57 -11 10
-17 10 -17 11 1 0 17 6 18 55 13 78 -8 120 -34 120 -75 0 -32 0 -32 16 -11
l16 21 20 -26 c22 -28 38 -88 28 -109 -3 -6 0 -4 7 5 11 15 13 15 30 -4 27
-31 24 -102 -4 -122 -12 -9 -27 -16 -32 -16 -6 0 0 7 12 16 12 8 22 20 22 26
0 6 -9 3 -19 -6 -11 -10 -26 -16 -33 -13 -9 4 -7 6 4 6 17 1 38 29 38 52 0 7
-10 9 -24 7 -16 -3 -23 -1 -19 7 2 7 -8 22 -24 34 -15 11 -33 25 -40 30 -6 6
-34 13 -62 17 -57 7 -132 -3 -112 -15 9 -6 5 -10 -12 -15 -14 -3 -32 -9 -41
-12 -12 -4 -16 0 -17 17 -1 23 -2 23 -8 -2 -5 -24 -121 -131 -121 -113 0 3 -7
1 -15 -6 -13 -10 -15 -9 -15 11 0 19 -7 12 -30 -30 -32 -57 -60 -94 -67 -87
-3 2 -21 -7 -40 -20 -41 -28 -91 -31 -133 -9 -17 9 -30 13 -30 10 0 -16 36
-57 67 -75 47 -28 78 -17 169 57 l69 56 -45 -48 c-56 -60 -126 -105 -161 -105
-36 0 -74 32 -110 94 -28 47 -30 48 -25 19 7 -39 -5 -42 -52 -13 l-33 20 15
-28 c17 -33 43 -58 76 -71 14 -5 18 -10 10 -10 -36 -2 -82 41 -111 102 l-29
62 6 -42 c6 -40 5 -43 -16 -43 -20 0 -21 3 -15 43 l6 42 -30 -62 c-20 -42 -41
-69 -63 -83 -45 -27 -59 -25 -18 3 19 12 43 38 54 57 l21 35 -32 -23 c-46 -33
-64 -29 -57 11 5 29 3 28 -25 -19 -36 -62 -74 -94 -110 -94 -35 0 -105 45
-161 105 l-45 48 70 -57 c38 -31 80 -59 93 -63 40 -10 90 6 116 38 34 40 33
51 -1 33 -42 -21 -95 -17 -136 10 -19 13 -37 22 -40 20 -7 -7 -35 29 -68 87
-23 41 -29 47 -26 27 2 -16 2 -28 0 -28 -3 0 -25 21 -50 48 -25 26 -39 38 -32
28 12 -17 12 -19 -1 -11 -48 28 -70 51 -71 74 -2 24 -2 24 -6 4 -2 -13 -5 -23
-6 -23 -12 1 -79 29 -72 30 22 3 -33 19 -66 19 -47 1 -100 -9 -94 -19 2 -3
-14 -14 -35 -24 -44 -19 -48 -30 -22 -60 17 -21 17 -21 -4 -3 -23 19 -40 22
-49 7 -9 -15 13 -50 33 -51 11 0 13 -2 4 -6 -7 -3 -23 3 -34 13 -16 14 -20 15
-16 4 2 -8 15 -21 29 -27 14 -8 18 -13 9 -13 -34 0 -60 30 -60 70 0 46 9 72
21 64 5 -3 9 3 9 13 1 15 4 13 16 -7 9 -14 13 -17 10 -6 -9 28 11 91 40 126
27 31 69 58 114 70 32 9 36 5 19 -17z m2608 -230 c3 -18 2 -40 -1 -50 -6 -15
-9 -15 -17 -3 -8 12 -9 10 -4 -7 4 -13 -2 -42 -15 -70 -11 -26 -23 -74 -27
-108 -7 -68 -24 -110 -53 -125 -24 -13 -25 -8 -6 28 7 15 17 47 21 72 l7 44
-36 -39 c-20 -21 -39 -35 -43 -32 -3 4 -1 12 5 19 5 7 18 40 27 73 9 33 31 82
49 110 30 48 31 53 29 150 l-2 100 30 -65 c17 -36 33 -79 36 -97z m-3592 57
c-7 -87 -6 -91 21 -137 28 -46 86 -204 78 -212 -2 -2 -18 11 -35 30 l-32 34 5
-42 c3 -23 13 -56 22 -74 9 -18 15 -34 13 -35 -2 -2 -18 11 -35 29 -28 29 -34
43 -41 108 -5 41 -16 89 -25 106 -9 18 -16 44 -16 58 0 14 -4 24 -9 21 -13 -9
-20 29 -11 66 11 50 51 138 62 138 7 0 8 -33 3 -90z m719 55 c-26 -24 -33 -33
-19 -30 11 3 4 -2 -15 -11 -19 -9 -51 -25 -70 -37 l-35 -20 35 37 c29 31 123
96 139 96 2 0 -13 -16 -35 -35z m2129 1 c29 -18 65 -48 82 -65 l30 -32 -70 36
c-75 40 -91 50 -60 40 13 -4 7 4 -15 24 -46 40 -32 39 33 -3z m-2618 -14 c-45
-13 -46 -14 -29 -33 9 -10 12 -19 6 -19 -12 0 -72 48 -72 58 0 4 32 7 71 7
l72 0 -48 -13z m3152 -3 c-11 -17 -59 -49 -74 -49 -4 0 0 5 10 11 28 16 20 27
-30 41 l-48 14 76 -1 c68 0 75 -2 66 -16z m-3298 -120 c-13 -60 -14 -61 -21
-28 -7 33 -2 104 10 123 3 6 10 0 15 -12 7 -14 5 -41 -4 -83z m3380 14 c1 -29
-3 -53 -7 -53 -5 0 -15 25 -22 55 -11 45 -11 57 1 71 12 15 14 14 20 -3 4 -10
8 -42 8 -70z m-2736 38 c-12 -9 -29 -21 -39 -28 -18 -12 -18 -12 1 -6 11 4
-14 -21 -56 -54 -41 -33 -96 -88 -122 -123 -26 -34 -47 -59 -47 -55 0 19 66
127 106 172 51 59 167 140 173 121 2 -6 -5 -19 -16 -27z m2201 -62 c57 -53
116 -137 131 -184 5 -14 -1 -10 -16 10 -39 50 -131 145 -142 145 -5 0 13 -20
40 -44 44 -40 140 -190 101 -158 -14 11 -14 6 2 -37 19 -49 45 -180 37 -187
-2 -3 -21 21 -41 51 -40 61 -93 117 -145 154 -29 21 -27 16 23 -48 88 -114
146 -251 145 -341 0 -33 -1 -31 -23 26 -25 63 -64 144 -70 144 -2 0 7 -29 20
-64 48 -132 53 -301 14 -438 -13 -45 -30 -50 -30 -9 0 37 -35 146 -61 191
l-20 35 6 -30 c5 -27 3 -25 -21 15 -15 25 -38 57 -52 72 l-25 27 19 45 c11 25
21 46 24 46 3 0 14 -14 24 -31 20 -34 34 -33 16 1 -6 12 -9 24 -7 27 6 6 52
-64 79 -121 l19 -41 -6 44 c-8 59 -40 147 -70 193 -28 42 -31 53 -12 42 6 -4
0 6 -14 22 -42 46 -64 84 -48 84 7 0 22 -8 33 -17 12 -10 2 3 -21 28 -67 70
-57 91 17 38 l43 -31 -34 47 c-19 26 -42 53 -52 60 -16 11 -17 17 -7 37 17 32
16 31 42 19 l23 -12 -22 17 c-25 18 -31 54 -9 54 7 0 19 -7 26 -15 7 -8 21
-15 30 -15 10 0 28 -12 40 -27 20 -26 20 -27 9 -3 -7 14 -34 49 -61 78 -26 30
-48 58 -48 63 0 11 56 -16 65 -31 3 -5 11 -10 17 -10 6 0 1 11 -12 25 -13 14
-19 25 -14 25 5 0 -7 14 -26 30 -23 20 -28 28 -15 24 20 -6 20 -6 0 7 -11 8
-29 19 -40 25 -11 6 -22 19 -23 29 -4 15 1 15 39 -6 24 -13 70 -49 103 -80z
m-1872 17 c15 -1 36 -10 47 -20 10 -9 22 -16 27 -15 5 2 32 -19 59 -45 l50
-48 -71 45 c-116 73 -132 80 -186 75 -27 -3 -46 -2 -41 2 12 12 45 18 68 13
11 -2 32 -5 47 -7z m1531 -6 c5 -4 -14 -5 -42 -2 -53 5 -66 -1 -196 -82 l-60
-38 50 46 c28 25 55 45 61 46 6 0 19 9 29 20 10 11 21 18 25 15 4 -2 20 0 36
5 30 9 83 4 97 -10z m-1954 -66 l-34 -37 45 32 c25 18 46 27 48 21 2 -5 -19
-35 -47 -66 -64 -70 -89 -114 -37 -65 20 19 36 32 36 27 0 -4 10 0 22 8 12 9
26 16 30 16 13 0 9 -35 -4 -49 -11 -10 -10 -11 3 -6 10 4 19 -3 28 -22 12 -25
10 -29 -13 -48 -14 -11 -26 -26 -26 -31 0 -6 -9 -19 -20 -29 -32 -29 -14 -30
20 -1 28 23 60 34 60 21 0 -3 -19 -26 -42 -52 -27 -29 -35 -42 -21 -35 12 7
24 12 28 12 10 0 -17 -44 -49 -79 -17 -19 -24 -32 -15 -28 12 4 7 -11 -17 -50
-33 -55 -61 -135 -71 -203 -5 -30 0 -24 31 35 20 39 45 81 56 95 l20 25 -10
-28 c-15 -42 -12 -45 13 -13 l23 29 18 -47 18 -46 -30 -38 c-16 -20 -37 -50
-46 -67 -14 -24 -16 -25 -13 -7 8 34 0 27 -27 -25 -30 -60 -56 -147 -56 -187
0 -45 -15 -20 -34 55 -32 131 -13 348 39 448 8 17 13 31 10 31 -7 0 -54 -95
-81 -165 -19 -51 -23 -55 -24 -30 -1 86 70 257 144 348 61 75 65 86 20 50 -52
-41 -113 -108 -143 -155 -12 -21 -25 -38 -28 -38 -12 0 7 120 27 172 23 62 23
61 9 53 -14 -9 28 72 59 113 22 29 98 92 111 92 3 0 -11 -16 -30 -36z m183 -5
c23 -1 22 -1 -2 -9 l-25 -7 27 -8 c16 -4 42 -2 59 4 39 14 52 6 15 -9 -49 -18
-105 -12 -131 15 -34 34 -32 49 5 30 16 -8 39 -15 52 -16z m1978 21 c0 -6 -11
-22 -25 -35 -17 -18 -35 -25 -64 -25 -40 0 -98 16 -89 26 3 2 18 0 34 -6 17
-7 44 -8 64 -4 l35 7 -30 7 c-28 7 -28 8 -5 9 14 1 36 8 50 16 31 17 30 17 30
5z m592 -91 c-7 -10 -12 -38 -12 -61 0 -36 -2 -40 -13 -24 -15 21 -13 78 5
129 l13 38 9 -31 c7 -22 6 -38 -2 -51z m-3212 -22 c6 -30 3 -43 -11 -60 l-19
-22 0 35 c1 19 -2 60 -5 90 l-6 55 17 -30 c10 -16 21 -47 24 -68z m875 51
c-11 -6 -30 -20 -42 -31 -24 -22 -31 -10 -13 24 7 13 21 19 43 19 29 -1 30 -2
12 -12z m1485 -7 c18 -34 11 -46 -12 -24 -13 11 -32 25 -43 31 -18 10 -17 11
12 12 22 0 36 -6 43 -19z m-1730 -59 c33 -10 34 -10 7 -11 -42 -1 -86 26 -87
53 0 5 10 0 23 -11 12 -12 38 -26 57 -31z m97 31 c-29 -16 -79 -16 -100 0 -14
10 -5 12 53 12 61 1 67 -1 47 -12z m1781 2 c2 -2 18 1 35 6 30 8 30 7 13 -6
-25 -19 -74 -19 -106 1 -24 14 -24 14 15 8 22 -4 41 -8 43 -9z m125 0 c-8 -22
-56 -45 -90 -44 -26 1 -25 2 9 11 20 5 44 18 54 29 21 23 36 25 27 4z m-1543
-30 c17 -9 30 -17 30 -20 0 -4 -71 24 -79 31 -11 10 23 2 49 -11z m1049 11
c-7 -7 -79 -35 -79 -31 0 7 54 34 69 35 8 0 12 -2 10 -4z m-1043 -46 c68 -34
132 -85 122 -96 -15 -14 -152 -16 -193 -2 -35 11 -40 17 -43 46 -4 36 20 82
42 82 7 0 39 -13 72 -30z m1089 6 c9 -14 15 -39 13 -58 -3 -29 -8 -35 -43 -46
-41 -14 -178 -12 -193 2 -10 11 54 62 122 96 72 36 81 37 101 6z m-1540 -27
c28 -7 28 -7 -10 -8 -38 -1 -65 12 -65 31 0 5 10 3 23 -3 12 -7 36 -16 52 -20z
m1955 6 c-7 -9 -28 -15 -49 -14 l-36 0 45 18 c50 20 59 19 40 -4z m-1729 -31
c41 -21 33 -26 -14 -10 -20 7 -34 16 -30 19 9 9 10 9 44 -9z m737 9 c-10 -2
-26 -2 -35 0 -10 3 -2 5 17 5 19 0 27 -2 18 -5z m745 0 c4 -3 -10 -12 -30 -19
-46 -16 -54 -11 -16 10 32 18 37 18 46 9z m-1536 -36 c3 -4 -2 -7 -13 -7 -10
-1 5 -9 34 -19 81 -28 80 -36 -6 -34 l-77 1 73 -8 c111 -12 117 -19 34 -41
-46 -11 -96 -34 -134 -59 -33 -22 -64 -37 -69 -34 -5 3 -9 0 -9 -7 0 -7 -12
-28 -27 -48 l-27 -35 -7 24 c-4 14 -8 41 -8 60 l-2 35 -14 -25 c-17 -30 -19
-69 -5 -106 7 -17 7 -31 1 -37 -6 -6 -14 6 -21 34 -15 53 -2 103 38 151 l27
33 -28 -18 c-28 -18 -28 -18 -18 1 15 28 70 73 104 85 20 6 25 12 17 17 -8 5
-33 -4 -61 -21 -53 -31 -54 -31 -38 4 13 29 45 46 105 54 24 3 42 9 39 13 -5
8 83 -4 92 -13z m1639 16 c-4 -4 21 -13 56 -20 43 -9 68 -20 80 -35 32 -41 20
-49 -31 -19 -28 17 -53 26 -61 21 -8 -5 -3 -11 17 -17 35 -13 89 -58 105 -87
11 -20 10 -20 -9 -3 -31 28 -37 20 -9 -13 39 -46 52 -101 37 -151 -9 -28 -16
-38 -23 -31 -7 7 -6 16 1 30 15 28 13 82 -4 112 l-14 25 -2 -35 c0 -19 -4 -46
-8 -59 -6 -24 -7 -23 -34 13 -20 26 -26 43 -22 59 7 20 6 21 -7 4 -13 -17 -17
-16 -75 23 -39 25 -88 47 -135 59 -83 22 -77 29 34 41 l73 8 -77 -1 c-86 -2
-87 6 -6 34 29 10 44 18 34 19 -32 0 -9 13 37 21 23 3 44 7 46 8 2 0 1 -2 -3
-6z m-2404 -85 c-69 -84 -112 -142 -112 -152 0 -3 17 4 38 15 l37 21 -44 -40
c-24 -22 -41 -44 -37 -50 3 -6 1 -14 -5 -18 -8 -5 -9 -3 -4 6 5 9 4 11 -4 6
-6 -4 -9 -11 -6 -16 3 -4 -11 -34 -30 -66 -19 -32 -35 -62 -35 -67 0 -5 18 6
41 25 59 48 100 77 133 94 24 14 21 8 -22 -45 -95 -114 -162 -262 -202 -443
-19 -89 -20 -90 -14 -28 9 91 38 200 80 294 19 45 38 88 41 96 8 25 -79 -79
-160 -190 l-18 -25 6 30 c23 119 98 291 176 406 35 53 194 229 206 229 2 0
-27 -37 -65 -82z m3142 -37 c98 -104 190 -269 241 -433 31 -99 29 -129 -4 -73
-24 41 -142 187 -147 182 -2 -1 10 -30 26 -64 52 -108 100 -287 99 -363 0 -22
-7 -1 -19 55 -35 174 -106 331 -201 445 -27 33 -47 60 -44 60 12 0 116 -71
154 -106 23 -20 41 -33 41 -30 0 13 -33 71 -67 119 -30 43 -31 47 -11 37 13
-6 -2 13 -32 42 -51 48 -52 50 -17 30 20 -12 37 -19 37 -16 0 11 -64 99 -123
168 -50 59 -53 64 -17 31 23 -22 61 -60 84 -84z m-3429 53 c-15 -37 -15 -37 5
-19 24 22 25 16 5 -31 -14 -35 -15 -37 -15 -52 0 -5 -9 -18 -21 -31 -33 -35
-15 -37 51 -4 33 16 60 25 60 20 0 -6 12 0 27 14 30 28 25 17 -34 -68 -24 -34
-54 -85 -68 -115 -31 -69 -32 -33 -1 55 l24 68 -21 -7 c-40 -13 -92 -24 -114
-24 -19 0 -14 8 32 53 63 61 70 83 25 74 -16 -4 -30 -5 -30 -2 0 2 14 19 30
37 17 18 36 45 43 61 18 41 20 15 2 -29z m3698 -42 l32 -34 -40 8 -39 7 18
-29 c10 -16 36 -46 59 -66 40 -36 41 -38 17 -38 -14 0 -50 6 -79 14 -59 15
-57 20 -28 -59 8 -22 18 -56 21 -75 6 -28 0 -22 -27 32 -19 37 -56 97 -82 135
-26 37 -39 60 -28 50 11 -10 24 -17 29 -15 5 1 27 -7 49 -19 22 -11 54 -23 70
-27 l30 -8 -22 24 c-22 24 -72 151 -51 130 22 -22 27 -12 12 23 -20 49 -17 56
7 15 12 -19 35 -50 52 -68z m-2349 47 c57 -1 59 -2 24 -10 -22 -5 -57 -5 -85
0 -26 5 -50 8 -53 6 -3 -2 -11 5 -18 15 -11 18 -10 18 30 4 22 -7 68 -14 102
-15z m1084 12 c-7 -11 -14 -18 -18 -16 -3 1 -28 -1 -56 -5 -28 -5 -66 -5 -85
0 -30 7 -26 8 31 10 36 1 81 8 100 15 19 7 36 14 38 14 1 1 -3 -8 -10 -18z
m-534 -10 c16 -6 13 -10 -22 -24 -53 -21 -63 -21 -107 0 -24 12 -31 19 -23 25
16 10 126 9 152 -1z m-180 -25 c19 -8 44 -24 57 -37 26 -26 74 -30 92 -6 6 8
31 25 55 37 33 17 51 21 80 15 l37 -7 -48 -15 c-35 -10 -62 -28 -96 -64 -61
-64 -81 -64 -140 0 -35 37 -58 53 -94 63 -36 9 -43 14 -30 19 28 12 51 10 87
-5z m-386 -43 c26 2 56 7 67 11 11 3 2 -3 -20 -14 -59 -29 -98 -26 -137 10
l-33 31 38 -22 c29 -17 49 -20 85 -16z m1102 30 c0 -16 -68 -53 -96 -53 -28 0
-114 34 -114 44 0 3 16 -2 35 -10 48 -20 104 -18 140 5 36 23 35 23 35 14z
m875 -78 l30 -15 -32 -6 c-29 -6 -31 -9 -22 -26 18 -34 5 -28 -19 8 -19 30
-20 34 -5 34 14 0 14 3 -4 23 -11 12 -26 33 -33 47 -9 18 -4 15 21 -12 19 -21
47 -44 64 -53z m-2881 53 c-4 -7 -16 -23 -27 -35 -18 -20 -18 -23 -4 -23 14 0
14 -4 -4 -35 -22 -37 -37 -49 -19 -16 14 27 13 31 -9 31 -27 0 -36 17 -13 24
10 4 31 20 47 36 31 32 41 38 29 18z m1216 1 c0 -6 7 -8 16 -5 22 9 76 -50
108 -118 32 -67 32 -69 4 -61 l-23 6 24 -20 c13 -12 36 -21 51 -21 15 0 38 9
51 21 l24 20 -22 -6 c-13 -4 -23 -3 -23 0 0 23 78 149 103 167 71 51 192 29
312 -57 88 -63 120 -112 119 -181 0 -44 -6 -62 -37 -107 -34 -48 -122 -125
-132 -115 -3 2 23 28 56 58 58 52 79 80 93 126 5 16 -7 9 -41 -25 -27 -25 -63
-58 -80 -72 -43 -35 -52 -74 -25 -102 11 -11 30 -21 41 -22 29 -2 78 -40 102
-78 10 -18 19 -27 19 -21 0 5 -15 36 -34 67 -33 54 -36 72 -7 45 10 -11 11 -7
6 17 -4 17 -8 36 -11 43 -8 26 17 10 65 -45 89 -100 172 -292 171 -398 -1 -37
-2 -39 -15 -21 -8 11 -15 29 -15 41 0 42 -40 178 -71 241 -18 35 -33 63 -35
62 -1 -2 8 -34 22 -73 15 -44 24 -93 24 -132 0 -67 -19 -90 -21 -25 0 20 -7
60 -14 87 -13 48 -14 48 -9 9 5 -42 -13 -124 -27 -124 -4 0 -24 9 -44 21 -30
18 -38 19 -53 8 -14 -11 -15 -11 -4 1 14 16 16 34 3 26 -5 -3 -26 1 -47 10
-22 9 -79 27 -129 40 -78 20 -85 23 -50 25 l40 1 -40 10 c-22 5 -77 10 -122
11 -66 2 -82 5 -78 16 4 11 2 11 -9 2 -8 -7 -45 -11 -92 -10 -80 1 -254 -17
-264 -28 -3 -3 22 -3 55 0 53 5 47 2 -50 -23 -60 -15 -127 -35 -148 -44 -21
-9 -43 -14 -48 -10 -6 4 -6 -4 2 -17 11 -22 11 -23 -4 -10 -14 11 -22 10 -52
-8 -20 -12 -40 -21 -44 -21 -19 0 -32 84 -21 134 6 27 9 50 7 53 -6 6 -26 -76
-33 -140 -4 -31 -11 -57 -17 -57 -16 0 -1 150 22 209 30 81 19 72 -22 -16 -36
-78 -67 -184 -67 -234 0 -15 -7 -32 -15 -39 -13 -11 -15 -8 -15 21 0 105 86
307 170 402 53 59 75 72 66 37 -3 -11 -9 -29 -12 -41 -5 -18 -3 -19 14 -10 17
9 14 1 -14 -46 -19 -31 -34 -62 -34 -67 0 -6 9 3 19 21 24 38 73 76 102 78 11
1 30 11 41 22 27 28 18 67 -24 102 -17 14 -54 48 -81 74 -38 38 -47 44 -42 25
16 -49 37 -78 97 -132 35 -31 57 -56 49 -56 -7 0 -43 30 -80 68 -110 110 -117
196 -24 290 43 43 47 44 59 27 13 -18 14 -17 14 7 0 30 29 52 104 79 57 20
146 25 146 8z m193 -6 c-7 -2 -19 -2 -25 0 -7 3 -2 5 12 5 14 0 19 -2 13 -5z
m-733 -23 c-14 -11 -32 -17 -40 -14 -8 3 -11 2 -7 -2 4 -4 -3 -18 -15 -31 -30
-32 -14 -29 30 7 54 43 127 66 158 50 13 -7 21 -17 18 -22 -3 -4 4 -8 16 -8
12 0 18 -4 15 -11 -4 -6 -39 -9 -91 -6 -47 2 -79 0 -72 -4 7 -5 30 -8 51 -7
50 2 56 -7 15 -27 -18 -10 -56 -35 -85 -56 -58 -44 -93 -49 -136 -21 -27 19
-56 51 -57 64 0 16 76 63 138 84 82 28 94 29 62 4z m1390 5 c23 -8 65 -31 94
-52 48 -35 49 -35 23 -7 -15 17 -24 34 -20 39 5 4 3 5 -3 2 -5 -3 -23 3 -40
14 -16 10 -26 19 -23 19 19 0 136 -43 164 -60 53 -33 59 -45 39 -75 -31 -48
-117 -73 -142 -42 -6 7 -31 13 -57 15 -35 1 -55 9 -85 33 -22 18 -38 34 -36
36 2 3 33 -11 67 -29 82 -42 83 -43 75 -29 -4 7 -32 26 -62 43 -30 17 -52 33
-49 36 3 3 22 5 42 4 21 -1 44 2 51 7 7 4 -21 6 -62 4 -46 -2 -83 1 -94 7 -13
9 -6 10 33 6 34 -4 45 -3 35 4 -8 5 -24 10 -34 10 -20 0 -20 0 0 15 24 18 32
18 84 0z m-1199 -91 c-56 -63 -73 -130 -51 -190 13 -33 8 -39 -18 -25 -12 6
-23 23 -25 38 -3 22 -4 19 -6 -12 -2 -22 -5 -34 -8 -27 -2 6 -13 12 -23 12
-28 0 -31 13 -15 67 14 48 45 84 119 137 14 10 34 25 43 32 30 22 27 16 -16
-32z m1089 -1 c8 -7 32 -28 53 -46 45 -38 64 -69 69 -117 2 -28 -1 -35 -17
-38 -11 -3 -23 -9 -27 -16 -4 -6 -8 7 -9 29 -2 30 -3 33 -6 12 -2 -15 -13 -32
-25 -38 -26 -14 -31 -8 -18 25 24 63 5 127 -57 197 -36 42 -37 43 -8 25 17
-11 37 -25 45 -33z m-1174 -18 c-23 -18 -54 -35 -72 -37 -44 -5 -34 6 34 42
75 38 86 37 38 -5z m-287 -25 c12 -17 42 -40 66 -52 40 -19 45 -20 59 -5 16
16 76 37 105 37 9 0 5 -10 -11 -32 -14 -18 -31 -50 -38 -70 -8 -21 -16 -34
-20 -29 -3 5 -30 11 -60 12 -58 3 -105 24 -152 68 -33 30 -34 40 -7 75 26 33
30 33 58 -4z m1858 8 c13 -12 23 -29 23 -38 0 -42 -114 -109 -185 -110 -23 0
-45 -4 -51 -10 -7 -7 -14 3 -23 28 -7 20 -24 52 -38 70 -15 20 -19 32 -11 32
31 0 94 -23 106 -38 11 -15 16 -14 56 6 25 11 55 35 67 52 13 16 25 30 28 30
2 0 15 -10 28 -22z m-2397 -29 c-7 -12 -14 -38 -15 -57 l-4 -34 25 23 25 23
-25 -54 c-14 -30 -32 -91 -40 -135 l-16 -80 5 63 c3 34 7 75 11 90 l6 27 -21
-25 c-15 -18 -21 -21 -21 -9 0 33 68 204 78 195 2 -2 -2 -14 -8 -27z m2928
-54 c11 -27 23 -68 27 -90 l6 -40 -21 25 c-18 21 -21 22 -15 5 3 -11 8 -51 11
-90 l4 -70 -14 77 c-8 42 -25 102 -39 132 -26 55 -24 76 2 35 21 -34 33 -3 15
39 -8 19 -14 37 -14 40 0 14 18 -17 38 -63z m-2456 -55 c22 -21 48 -42 59 -45
22 -7 26 -25 6 -25 -20 0 -94 55 -106 79 -24 44 -9 41 41 -9z m269 -5 c-5 -29
-9 -35 -14 -22 -3 9 -1 28 5 42 15 33 17 28 9 -20z m1410 -23 c-9 -14 -10 -13
-11 10 0 14 -3 35 -6 45 -3 10 2 6 11 -10 11 -20 13 -32 6 -45z m309 62 c0
-27 -86 -104 -117 -104 -24 0 -13 14 28 40 23 14 48 35 56 48 14 20 33 30 33
16z m-2006 -81 l22 -17 -28 -66 c-34 -80 -36 -112 -2 -47 25 47 38 62 28 30
-4 -10 6 -3 21 15 25 31 58 42 69 23 3 -5 -14 -38 -38 -74 -53 -79 -82 -154
-99 -256 -12 -68 -14 -73 -20 -42 -4 18 -7 59 -8 90 l-1 56 -14 -30 c-14 -28
-14 -24 -10 65 2 52 11 114 20 138 19 53 1 44 -24 -12 -16 -35 -19 -37 -19
-16 -1 44 20 104 47 133 30 32 27 31 56 10z m2033 -5 c23 -25 43 -87 43 -133
0 -27 -2 -25 -25 23 -13 28 -26 52 -28 52 -3 0 4 -27 14 -61 13 -42 19 -88 18
-147 -1 -57 -4 -77 -8 -57 -6 25 -9 17 -15 -43 -5 -39 -11 -74 -16 -77 -4 -2
-10 21 -13 53 -9 84 -43 173 -97 257 -46 69 -48 74 -29 80 15 5 29 -1 49 -20
15 -15 32 -27 37 -26 4 0 16 -14 25 -32 26 -48 21 -15 -7 55 -23 57 -24 63 -8
80 21 24 35 23 60 -4z m-1790 -10 c-3 -8 -6 -5 -6 6 -1 11 2 17 5 13 3 -3 4
-12 1 -19z m1490 0 c-3 -8 -6 -5 -6 6 -1 11 2 17 5 13 3 -3 4 -12 1 -19z
m-1547 -32 c35 -12 58 -26 52 -30 -12 -7 -118 30 -127 45 -9 14 7 11 75 -15z
m1676 15 c-4 -5 -25 -16 -49 -24 -23 -8 -50 -18 -59 -22 -10 -4 -18 -3 -18 3
0 5 24 19 53 30 57 23 81 27 73 13z m-1548 -71 c23 -17 42 -32 42 -35 0 -8
-100 49 -100 58 0 14 17 7 58 -23z m1402 22 c0 -10 -70 -45 -77 -39 -4 5 58
47 70 47 4 0 7 -4 7 -8z m-1491 -28 c2 -2 -2 -11 -9 -19 -12 -14 -11 -15 12
-5 20 10 31 9 58 -5 l32 -17 -28 -31 c-16 -17 -21 -25 -11 -18 27 21 28 9 0
-34 -15 -25 -22 -31 -18 -16 10 32 -8 20 -46 -31 -34 -48 -38 -31 -9 44 11 28
18 53 16 55 -2 2 -24 -23 -49 -56 -24 -33 -47 -57 -51 -54 -5 5 -29 -43 -74
-147 -10 -22 -11 -20 -11 25 -1 65 22 172 48 227 18 36 20 38 16 13 -5 -27 -3
-25 20 15 39 67 45 72 74 65 14 -4 28 -8 30 -11z m1620 -36 c28 -46 32 -49 27
-23 -4 26 -2 24 14 -11 31 -65 50 -153 49 -224 l0 -65 -19 53 c-19 52 -57 122
-66 122 -3 0 -2 -4 1 -10 3 -5 4 -10 2 -10 -3 0 -16 19 -30 43 -14 23 -37 53
-51 66 l-25 24 18 -49 c10 -27 21 -62 25 -79 7 -29 7 -29 -22 10 -16 22 -36
46 -46 54 -15 13 -16 12 -7 -13 16 -39 6 -31 -22 19 -25 43 -24 58 1 33 8 -8
12 -9 12 -1 0 6 -12 20 -27 31 l-27 20 32 16 c39 20 51 20 75 -1 19 -18 19
-17 6 5 -12 20 -12 24 1 32 29 19 46 10 79 -42z m849 -143 c24 -92 42 -222 42
-310 0 -146 -58 -389 -129 -540 l-28 -60 -12 70 c-15 88 -61 245 -73 245 -4 0
-8 -22 -8 -48 0 -144 -114 -399 -224 -501 -25 -24 -25 -24 8 55 54 128 84 275
87 424 1 53 2 60 9 36 5 -16 12 -60 16 -99 4 -41 10 -64 15 -56 16 29 39 172
39 242 0 76 -23 230 -45 304 -7 24 -11 43 -8 43 10 0 88 -182 124 -290 29 -88
37 -104 34 -70 -4 43 -4 42 16 -20 35 -111 36 -112 44 -28 4 42 6 111 3 152
-3 75 6 83 17 14 14 -78 25 -33 26 100 0 127 1 134 14 97 12 -38 13 -32 14 85
0 69 -6 161 -14 205 -8 44 -15 82 -14 85 0 15 29 -66 47 -135z m-3374 35 c-7
-47 -13 -139 -13 -205 1 -113 1 -118 14 -80 12 38 13 33 14 -85 1 -69 6 -132
11 -140 8 -12 10 -10 11 10 0 14 7 41 14 60 13 34 13 33 8 -26 -6 -69 5 -234
16 -234 4 0 13 26 20 58 16 71 35 106 27 48 -3 -21 -4 -37 -2 -35 2 2 22 58
44 124 40 119 109 281 117 274 2 -3 -5 -34 -15 -71 -45 -162 -49 -353 -12
-475 l19 -58 7 65 c4 36 11 81 16 100 8 34 8 34 9 -15 3 -158 42 -339 97 -455
l35 -75 -36 35 c-119 114 -224 356 -225 518 -1 47 -1 47 -15 21 -18 -33 -65
-212 -65 -248 0 -14 -4 -32 -9 -39 -16 -26 -108 225 -138 376 -22 115 -22 329
1 435 18 84 56 211 60 205 2 -1 -3 -41 -10 -88z m3055 29 c26 -47 50 -55 34
-12 -3 10 -2 14 3 10 4 -4 11 -38 15 -75 4 -37 10 -89 13 -117 6 -43 4 -40
-14 25 -11 41 -36 108 -55 148 -19 39 -32 72 -30 72 3 0 18 -23 34 -51z
m-2767 -26 c-14 -32 -37 -94 -49 -138 -17 -58 -22 -68 -17 -35 3 25 9 78 14
118 8 76 20 107 20 56 1 -27 2 -27 12 -9 19 36 38 65 43 65 2 0 -8 -26 -23
-57z m1443 -127 c72 -3 159 -11 195 -19 58 -12 280 -108 280 -121 0 -3 -35 11
-77 30 -42 19 -115 47 -162 62 -82 25 -97 26 -296 26 -237 0 -281 -8 -452 -82
-51 -22 -93 -38 -93 -36 0 6 111 60 180 87 65 25 129 40 227 52 42 6 51 10 46
23 -5 16 -5 16 8 0 11 -13 39 -18 144 -22z m152 28 c-3 -3 -12 -4 -19 -1 -8 3
-5 6 6 6 11 1 17 -2 13 -5z m-872 -187 c-59 -52 -81 -99 -72 -153 7 -43 -8
-36 -17 7 -8 43 23 106 77 156 33 31 42 45 40 68 l-2 30 13 -30 c14 -30 13
-31 -39 -78z m1283 66 c-2 -10 14 -33 38 -55 58 -53 89 -115 80 -159 -3 -20
-12 -44 -20 -54 -11 -16 -12 -10 -3 39 13 72 -2 107 -71 166 -48 41 -49 45
-39 74 10 30 22 22 15 -11z m-1885 -33 c-8 -27 -20 -96 -27 -152 -13 -102 -13
-103 -21 -54 -9 58 5 144 34 210 26 60 32 58 14 -4z m574 3 c-3 -10 -5 -2 -5
17 0 19 2 27 5 18 2 -10 2 -26 0 -35z m627 20 l54 -26 45 26 c58 34 76 34 123
-4 27 -21 44 -28 59 -24 60 20 81 17 128 -19 26 -20 50 -36 53 -36 3 0 17 9
31 20 40 31 50 23 16 -12 -16 -18 -38 -47 -49 -65 l-18 -32 -14 29 c-8 16 -17
29 -21 28 -3 -1 -24 8 -46 20 -22 11 -34 21 -26 22 8 0 12 3 9 6 -7 7 -84 -32
-93 -47 -5 -7 -17 1 -34 19 -34 39 -110 50 -137 21 -22 -24 -50 -24 -63 0 -15
28 -108 18 -138 -15 -22 -24 -43 -32 -43 -16 0 5 -11 14 -25 20 -21 10 -32 9
-58 -4 -66 -32 -76 -39 -87 -63 l-11 -24 -20 39 c-12 21 -33 52 -48 68 l-26
29 41 -24 42 -23 36 32 c45 39 79 48 123 33 31 -11 37 -11 56 7 27 24 58 41
74 42 7 0 37 -12 67 -27z m743 -20 c-3 -10 -5 -2 -5 17 0 19 2 27 5 18 2 -10
2 -26 0 -35z m629 -125 c3 -35 1 -81 -4 -103 l-10 -40 -1 51 c-1 47 -23 195
-36 240 -3 11 6 -4 20 -33 15 -31 28 -77 31 -115z m-1806 66 c0 -2 -11 -37
-25 -79 -25 -72 -65 -250 -65 -284 0 -9 15 27 34 79 37 108 97 231 103 213 2
-6 -11 -42 -30 -80 -53 -105 -54 -127 -3 -40 26 42 51 77 57 77 6 0 2 -15 -9
-32 -38 -61 -119 -232 -158 -333 l-39 -100 -6 55 c-12 100 -9 306 5 382 18 93
30 124 51 132 14 5 16 2 11 -20 -11 -41 -17 -91 -10 -74 4 8 17 39 30 67 17
39 27 51 38 47 9 -3 16 -8 16 -10z m1032 -62 c30 -76 35 -73 13 8 -8 30 -15
56 -15 58 0 1 9 -2 20 -8 22 -12 46 -85 60 -182 l9 -63 -4 75 c-3 41 -8 88
-11 104 -5 20 -3 27 4 22 31 -19 48 -262 28 -391 l-10 -60 -7 40 c-5 35 -6 33
-8 -25 -2 -85 -14 -104 -30 -48 -21 69 -109 267 -151 341 -43 74 -44 77 -32
77 5 0 28 -34 51 -75 24 -41 45 -75 47 -75 6 0 -23 68 -56 129 -17 30 -26 59
-22 63 11 11 81 -140 113 -239 12 -40 24 -71 27 -69 7 8 -21 131 -35 154 l-14
23 28 -17 28 -18 -22 25 c-13 14 -23 29 -23 35 0 5 -12 47 -26 92 -22 69 -25
85 -13 92 18 12 19 10 51 -68z m-589 45 c10 -7 18 -30 19 -57 l3 -45 -60 -6
c-33 -3 -70 -9 -82 -13 -22 -7 -23 -4 -23 36 0 46 12 69 43 85 27 14 82 14
100 0z m127 1 c0 -9 3 -9 9 1 8 12 15 13 35 3 35 -16 58 -55 54 -94 -2 -27 -7
-32 -23 -30 -11 2 -49 6 -83 9 l-64 5 7 47 c6 45 25 71 52 71 7 0 13 -6 13
-12z m-319 -18 c12 -7 19 -21 19 -41 0 -18 4 -28 10 -24 11 7 12 -1 4 -31 -6
-21 -27 -27 -126 -37 -10 -1 -18 -5 -18 -9 0 -4 -6 -8 -14 -8 -7 0 -16 14 -20
32 -5 24 0 40 19 68 38 54 83 72 126 50z m570 -30 c30 -31 39 -48 39 -74 0
-34 -16 -57 -29 -40 -3 5 -15 10 -26 12 -11 1 -42 6 -70 10 l-50 7 2 44 c4 89
68 109 134 41z m864 -58 c8 -37 15 -96 15 -132 -1 -59 -2 -63 -15 -46 -14 18
-15 15 -16 -40 0 -32 -4 -77 -8 -99 -6 -32 -8 -17 -13 75 -4 73 -13 138 -26
178 -24 73 -7 70 33 -7 20 -39 24 -42 24 -21 1 30 -16 150 -25 176 -5 18 -5
18 6 1 6 -9 18 -47 25 -85z m-2089 38 c-7 -25 -16 -63 -19 -85 l-6 -40 20 25
c17 20 19 21 14 5 -4 -11 -18 -54 -31 -95 l-24 -75 4 100 c2 72 10 116 26 158
26 68 35 71 16 7z m1824 -39 c13 -42 20 -90 19 -145 l0 -81 -23 75 c-13 41
-26 84 -30 95 -6 16 -4 15 13 -5 30 -36 27 -10 -13 130 -16 54 14 -6 34 -69z
m-2099 -10 c-16 -104 -14 -111 19 -54 30 53 61 84 46 47 -27 -65 -40 -139 -40
-236 -1 -73 -4 -101 -11 -90 -5 9 -9 56 -10 104 0 47 -3 84 -7 81 -5 -2 -8
-11 -8 -19 0 -9 -5 -12 -11 -8 -14 8 -6 136 12 208 17 68 23 49 10 -33z m538
38 c-6 -19 -14 -113 -18 -209 l-7 -175 -8 90 c-11 112 -2 250 18 300 20 46 30
42 15 -6z m245 -181 c-15 -28 -48 -58 -63 -58 -10 0 -7 6 9 17 14 9 31 25 38
35 15 20 27 25 16 6z m822 -55 c-8 -8 -36 11 -51 34 -17 25 -17 25 18 -3 20
-15 35 -30 33 -31z m-1179 -47 c-3 -34 -8 -72 -12 -86 -6 -21 -5 -23 7 -10 15
17 38 24 38 12 0 -21 -74 -72 -105 -72 -14 0 -12 6 9 30 30 37 56 116 57 179
1 25 4 37 6 27 3 -11 3 -47 0 -80z m1524 -56 c6 -19 22 -50 36 -67 20 -27 21
-33 8 -33 -36 0 -105 52 -105 79 0 14 1 14 10 1 5 -8 10 -11 10 -6 0 5 9 1 19
-8 19 -17 19 -17 6 21 -8 21 -14 67 -13 103 l0 65 9 -60 c5 -32 14 -75 20 -95z
m-1211 60 c0 -12 -8 -12 -35 0 -18 8 -17 9 8 9 15 1 27 -3 27 -9z m877 -1
c-14 -8 -22 -8 -30 0 -8 8 -3 11 19 11 25 -1 27 -2 11 -11z m-67 -103 c0 -12
-5 -7 -19 24 -11 24 -11 24 3 6 9 -11 16 -24 16 -30z m-749 -21 c5 3 1 -7 -9
-24 -21 -37 -26 -33 -16 11 4 18 9 27 11 20 3 -6 9 -10 14 -7z m751 1 c3 3 9
-7 12 -22 10 -40 1 -39 -24 2 -12 21 -15 32 -7 26 7 -7 16 -9 19 -6z m-1105
-53 c-12 -19 -35 -113 -27 -108 5 3 6 -10 3 -30 l-6 -36 37 22 c20 12 39 19
42 16 3 -2 -9 -27 -27 -53 -17 -27 -29 -41 -25 -31 3 9 9 25 12 35 3 9 -11 -1
-31 -23 l-37 -40 4 80 c4 73 35 175 53 175 3 0 4 -3 2 -7z m591 -13 c17 -11
32 -22 32 -24 0 -2 -21 3 -47 11 -27 8 -66 12 -88 9 -37 -4 -38 -3 -21 10 28
20 85 17 124 -6z m372 10 c11 -7 6 -10 -20 -10 -19 -1 -53 -7 -75 -15 -47 -17
-63 -19 -49 -6 35 35 112 52 144 31z m529 -56 c14 -35 21 -79 21 -121 l0 -66
-35 39 -35 39 16 -40 c9 -22 12 -35 7 -30 -16 17 -64 105 -58 105 3 0 23 -9
44 -20 l39 -19 -8 34 c-5 21 -4 33 1 29 11 -7 2 36 -18 84 -8 19 -10 31 -4 28
5 -4 19 -31 30 -62z m-902 -8 c27 -14 83 -62 83 -71 0 -2 -16 3 -35 11 -19 7
-45 14 -57 13 -21 -1 -21 -1 4 -9 78 -23 116 -77 109 -155 -2 -22 -5 -42 -7
-44 -2 -2 -22 13 -44 33 -51 46 -68 47 -25 1 19 -19 36 -49 40 -67 4 -18 13
-43 21 -55 17 -27 5 -29 -36 -8 -25 13 -29 13 -24 1 24 -62 163 -67 203 -7
l15 24 -31 -17 c-39 -20 -60 -21 -45 -3 6 7 20 38 32 69 12 32 33 67 47 78 14
11 21 20 14 20 -6 0 -28 -16 -50 -35 -21 -19 -41 -35 -45 -35 -3 0 -6 24 -6
53 0 69 33 119 92 140 30 11 36 16 20 16 -12 1 -39 -6 -59 -14 l-37 -16 24 27
c50 53 168 92 212 70 26 -13 35 -63 23 -126 -6 -30 -9 -32 -15 -15 -15 37 -11
-81 5 -142 21 -79 19 -121 -7 -173 -48 -94 -190 -137 -375 -112 -132 18 -205
72 -220 165 -5 32 12 141 26 162 3 6 4 35 0 65 -3 30 -7 46 -8 35 -2 -15 -6
-11 -16 15 -26 68 -10 125 38 132 31 5 102 -9 134 -26z m-426 -66 c12 0 12
-67 -1 -75 -6 -4 -5 -12 4 -21 17 -16 11 -44 -9 -44 -12 0 -13 -39 0 -59 3 -6
3 -16 -1 -23 -4 -7 -16 8 -31 37 -17 37 -23 66 -23 119 0 72 7 81 20 24 7 -30
8 -28 16 32 5 40 10 54 12 38 2 -16 8 -28 13 -28z m1150 -50 c4 0 9 10 11 23
3 12 6 -7 9 -42 3 -46 -1 -77 -14 -112 -23 -61 -38 -63 -33 -4 2 33 0 45 -10
45 -8 0 -14 11 -14 26 0 19 4 25 15 20 13 -4 12 -1 -2 20 -14 21 -14 31 -5 58
7 18 13 41 13 52 1 10 6 -5 12 -33 5 -29 13 -53 18 -53z m-1752 -61 c41 -80
49 -88 44 -47 l-4 33 19 -40 c11 -22 27 -49 37 -60 l17 -20 -7 20 c-26 73 -35
114 -35 159 l1 51 23 -61 c13 -34 31 -76 41 -95 l16 -34 -20 25 c-11 14 -21
29 -21 34 0 5 -2 7 -5 4 -10 -10 35 -115 76 -178 l39 -61 -32 18 c-53 29 -163
144 -190 198 -29 57 -58 149 -57 179 0 12 6 4 13 -20 7 -22 27 -69 45 -105z
m2382 72 c-25 -116 -133 -264 -232 -320 l-42 -24 30 44 c38 55 61 100 79 153
15 44 13 42 -31 -19 -8 -11 3 19 25 66 22 48 40 92 40 97 0 6 5 14 10 17 15 9
1 -99 -22 -164 -10 -30 -16 -56 -14 -58 2 -2 19 25 37 61 18 36 35 64 36 62 2
-1 -2 -18 -7 -37 -9 -32 -8 -33 6 -14 24 31 60 106 74 153 18 57 25 46 11 -17z
m-1653 -5 c5 -6 13 -22 16 -36 5 -17 4 -21 -2 -11 -7 9 -12 10 -16 2 -4 -6
-24 -11 -46 -11 -41 0 -57 19 -41 49 11 20 75 25 89 7z m944 -1 c4 -5 8 -20 8
-32 0 -21 -5 -23 -45 -23 -29 0 -45 4 -46 13 0 6 -4 3 -9 -8 -8 -19 -9 -19 -9
3 -2 43 16 61 56 59 21 -1 41 -6 45 -12z m-1218 -100 c-17 -42 -18 -53 -2 -37
24 24 25 11 2 -35 -33 -63 -32 -84 2 -52 l26 24 -20 -41 c-12 -23 -19 -43 -17
-46 2 -2 -4 -31 -14 -63 l-18 -60 -7 45 c-4 25 -5 82 -3 127 3 66 9 90 31 127
32 55 41 59 20 11z m1452 -29 c26 -56 31 -81 12 -70 -8 5 -9 2 -3 -12 12 -30
18 -120 10 -161 l-8 -38 -14 50 c-8 28 -16 62 -17 77 -2 14 -10 38 -20 52 -20
32 -14 34 14 4 19 -21 20 -21 20 -2 0 10 -11 38 -25 62 -23 41 -22 55 3 30 18
-18 16 6 -4 44 -9 18 -11 27 -4 23 7 -4 23 -31 36 -59z m-1176 34 c8 -14 7
-29 -4 -55 -14 -32 -18 -35 -48 -31 -18 3 -36 5 -40 5 -5 1 -8 21 -8 45 0 41
2 45 28 49 54 8 61 7 72 -13z m952 5 c12 -16 9 -73 -4 -81 -7 -4 -27 -9 -44
-11 -27 -3 -34 1 -43 24 -11 27 -11 27 -6 -7 4 -25 2 -31 -5 -20 -14 22 -12
63 5 87 11 16 24 21 53 20 20 -1 40 -6 44 -12z m-1396 -204 c4 -3 4 6 0 22
-11 46 1 30 20 -25 19 -59 63 -152 69 -146 2 2 0 21 -5 43 -5 22 -9 58 -9 80
1 40 1 40 10 -10 4 -28 17 -80 28 -115 11 -35 19 -66 17 -68 -8 -8 -77 63
-112 115 -40 61 -84 185 -84 236 1 26 6 17 30 -47 16 -43 33 -82 36 -85z m461
137 c-3 -8 -6 -5 -6 6 -1 11 2 17 5 13 3 -3 4 -12 1 -19z m1354 -70 c-18 -80
-67 -173 -126 -236 -29 -31 -55 -55 -58 -52 -3 3 3 31 14 62 10 32 23 81 29
110 9 51 9 51 5 -22 l-4 -75 22 40 c11 22 31 67 44 100 13 33 21 47 19 30 -4
-23 0 -19 19 20 13 28 27 66 32 85 6 29 8 31 11 12 2 -12 -1 -46 -7 -74z
m-320 -29 c0 -102 -13 -164 -52 -247 -36 -74 -47 -78 -20 -6 10 27 22 65 26
84 5 28 0 22 -24 -28 -48 -99 -88 -152 -116 -152 l-24 0 19 53 c19 52 19 52
-1 68 -20 15 -20 16 16 43 36 28 37 28 26 5 -25 -50 39 36 71 96 l31 60 -41
-42 c-35 -36 -126 -93 -148 -93 -3 0 20 19 52 43 69 51 135 123 159 173 9 20
19 34 21 31 3 -2 5 -42 5 -88z m-1212 36 c22 -42 108 -131 161 -167 l25 -17
-33 10 c-17 6 -55 31 -82 56 -28 25 -50 41 -50 36 0 -12 55 -104 80 -133 21
-25 21 -25 10 -1 -12 23 -11 23 25 -5 37 -28 37 -29 17 -42 l-21 -14 19 -51
c11 -29 20 -53 20 -54 0 -2 -11 -3 -25 -3 -20 0 -33 12 -61 56 -20 31 -47 80
-60 108 -30 67 -30 44 1 -41 13 -37 23 -69 21 -71 -8 -8 -46 68 -65 132 -21
68 -31 246 -13 246 4 0 18 -20 31 -45z m131 -30 c13 -21 19 -43 15 -53 -5 -15
-8 -14 -25 8 -10 14 -24 25 -31 25 -7 0 -14 6 -17 14 -3 10 1 12 18 8 21 -5
21 -5 4 14 -15 17 -15 19 -1 19 8 0 25 -16 37 -35z m949 15 l-24 -20 28 6 c15
3 27 4 27 1 0 -14 -13 -37 -22 -37 -5 0 -6 5 -3 10 3 6 2 10 -4 10 -5 0 -15
-13 -22 -29 -14 -32 -29 -32 -29 1 0 26 37 78 57 78 11 0 9 -6 -8 -20z m-54
-90 c3 -5 1 -10 -4 -10 -6 0 -11 5 -11 10 0 6 2 10 4 10 3 0 8 -4 11 -10z
m-1075 -62 c0 -9 -6 -19 -12 -21 -8 -3 -6 -6 5 -6 9 -1 17 -7 17 -15 0 -8 2
-21 5 -28 4 -9 -4 -19 -17 -26 l-23 -11 26 0 c21 -1 34 -13 62 -59 19 -31 53
-75 75 -97 l39 -40 -23 -34 c-13 -19 -24 -30 -24 -24 0 5 -27 38 -60 73 -34
36 -68 78 -76 93 -9 16 -18 27 -20 24 -7 -7 22 -63 52 -104 24 -32 31 -53 17
-53 -14 0 -54 67 -80 132 -21 51 -24 72 -19 120 7 69 33 129 47 107 5 -8 9
-21 9 -31z m1313 -66 c4 -35 3 -42 -9 -38 -11 4 -12 2 -4 -14 5 -10 10 -27 10
-37 0 -23 -49 -128 -56 -120 -3 3 0 16 7 28 6 13 -19 -7 -56 -44 -47 -46 -65
-71 -58 -78 7 -7 23 5 52 37 23 26 44 44 48 41 6 -6 -69 -95 -93 -109 -8 -5
-14 3 -18 26 -4 18 -15 41 -26 51 -19 17 -18 18 28 71 26 30 53 54 61 54 8 0
12 3 8 6 -3 3 7 31 23 63 16 31 32 70 35 86 16 71 16 71 30 44 7 -13 15 -43
18 -67z m-993 -84 c30 -13 57 -26 58 -31 2 -4 7 -5 12 -2 4 3 11 -7 15 -22 5
-22 0 -32 -30 -60 -20 -18 -45 -33 -55 -33 -30 0 -79 73 -104 157 -6 20 -4 22
21 18 15 -2 53 -14 83 -27z m740 18 c0 -21 -57 -131 -78 -149 -25 -23 -54 -16
-92 23 -20 21 -26 35 -23 55 3 14 7 24 9 22 3 -2 35 11 72 28 69 33 112 41
112 21z m-490 -70 c57 -1 62 -19 16 -69 -25 -28 -42 -37 -67 -38 l-34 -2 35
-7 c29 -5 32 -8 16 -15 -20 -9 -52 5 -49 21 1 5 -6 18 -16 29 -23 25 -41 59
-41 79 0 12 9 14 48 9 26 -3 67 -6 92 -7z m264 -24 c-8 -20 -23 -46 -34 -57
-10 -11 -19 -24 -19 -30 1 -17 -27 -29 -47 -20 -16 7 -13 10 16 15 l35 7 -33
2 c-24 1 -42 11 -68 39 -43 47 -41 68 6 64 19 -1 48 1 64 6 17 4 45 9 63 9
l32 1 -15 -36z m-938 -39 l-7 -48 21 25 22 25 -6 -40 c-4 -22 -9 -62 -12 -90
-5 -49 -5 -50 11 -25 12 18 15 19 10 5 -3 -10 -9 -39 -12 -63 -9 -66 -23 -30
-23 61 l0 78 -30 -16 c-16 -9 -30 -14 -30 -13 0 2 11 25 25 52 14 27 25 60 25
73 0 13 3 23 6 23 4 0 3 -21 0 -47z m1504 -64 l21 -40 -31 16 -30 16 0 -78 c0
-99 -12 -120 -26 -47 -9 49 -9 54 4 38 15 -20 15 -5 -4 116 l-7 45 21 -25 22
-25 -5 50 c-5 48 -4 49 5 12 5 -20 19 -55 30 -78z m-1142 42 c31 -38 31 -39
79 -30 26 5 53 16 59 24 17 23 29 18 47 -19 12 -26 24 -36 49 -41 55 -10 82
-2 106 33 12 17 29 32 37 32 8 0 27 -18 41 -40 15 -22 29 -40 31 -40 2 0 2 4
-2 9 -3 6 8 8 28 4 44 -7 95 19 103 52 7 29 20 31 45 9 20 -18 92 -35 106 -25
5 3 19 21 32 39 17 24 30 32 53 32 26 0 29 -2 18 -15 -7 -8 -18 -15 -25 -15
-7 0 -18 -7 -26 -16 -22 -26 -106 -64 -144 -64 -20 0 -48 -9 -63 -20 -35 -26
-101 -28 -153 -5 -39 18 -43 18 -89 2 -63 -23 -119 -21 -150 3 -15 11 -41 20
-63 20 -39 0 -124 37 -146 64 -8 9 -19 16 -26 16 -7 0 -18 7 -25 15 -11 13 -8
15 17 15 22 0 37 -10 61 -39z m-25 -42 c23 -12 49 -27 57 -34 15 -13 19 -15
41 -15 5 0 7 -5 3 -12 -4 -7 -3 -8 5 -4 7 4 46 0 87 -9 l74 -16 -6 -42 c-7
-44 -14 -61 -14 -34 0 11 -12 18 -37 23 -21 4 -42 9 -48 13 -5 3 -14 6 -20 6
-5 0 -25 4 -43 9 -25 6 -32 12 -27 24 4 12 0 10 -14 -5 -12 -12 -21 -28 -21
-36 0 -7 -3 -17 -6 -20 -11 -11 -124 54 -124 71 0 11 3 12 15 2 8 -6 18 -9 23
-6 6 3 15 -1 22 -9 7 -8 9 -15 4 -15 -10 -1 37 -29 49 -30 4 0 7 11 7 24 0 19
-11 30 -52 51 -67 35 -64 30 -44 60 20 30 17 30 69 4z m871 -1 c21 -29 20 -35
-4 -43 -11 -3 -20 -15 -20 -25 0 -24 -20 -37 -30 -20 -13 20 -40 3 -40 -25 0
-33 8 -32 69 9 31 21 51 29 51 22 0 -7 -27 -28 -60 -45 l-59 -32 -7 26 c-3 14
-23 39 -42 55 -33 27 -32 37 2 31 5 -1 12 2 15 8 7 10 91 61 103 61 4 0 14
-10 22 -22z m-976 -70 c-5 -15 -68 50 -68 70 0 12 11 5 36 -22 19 -21 33 -43
32 -48z m813 -5 c16 -10 29 -20 29 -23 0 -13 -74 -30 -81 -19 -4 7 -8 5 -12
-4 -3 -8 -24 -18 -46 -22 -28 -5 -41 -12 -41 -23 0 -26 -7 -9 -14 35 l-6 42
62 14 c82 20 75 20 109 0z m-311 -23 c13 -7 21 -7 25 0 3 5 26 10 51 10 39 0
46 -3 54 -26 14 -37 6 -44 -54 -44 -35 0 -58 -5 -66 -15 -7 -8 -23 -15 -37
-15 -13 0 -26 7 -29 15 -4 8 -16 15 -28 15 -38 0 -51 15 -38 44 10 22 18 26
57 26 26 0 55 -5 65 -10z m666 -170 c-12 -38 -14 -40 -15 -17 -1 36 -18 35
-26 -3 -6 -29 -82 -141 -104 -154 -6 -4 3 21 19 55 16 35 33 90 37 123 l7 61
11 -40 12 -40 12 40 c6 22 11 60 12 85 l1 45 12 -37 c17 -56 26 -56 28 -2 2
47 2 46 5 -11 2 -34 -3 -80 -11 -105z m-1324 80 c4 8 10 29 14 45 7 27 8 23
14 -30 4 -33 10 -71 15 -85 8 -24 9 -23 20 15 l11 40 6 -58 c4 -32 20 -88 38
-124 26 -57 28 -64 10 -48 -32 29 -100 135 -100 156 0 30 -20 22 -21 -8 -2
-57 -27 50 -27 112 1 59 1 59 8 15 3 -26 9 -39 12 -30z m413 5 c39 -10 79 -21
90 -26 18 -7 17 -8 -7 -8 -29 -1 -188 46 -188 56 0 3 8 3 18 0 9 -3 49 -13 87
-22z m605 20 c0 -7 -160 -55 -186 -55 -36 0 -29 15 9 17 18 2 60 11 93 22 61
20 84 24 84 16z m-220 -57 c0 -11 -257 -10 -264 1 -3 5 52 9 129 8 74 0 135
-4 135 -9z m-509 -316 c6 -20 27 -66 46 -101 39 -73 20 -65 -32 12 -30 44 -34
47 -37 26 -3 -22 -6 -21 -30 18 -29 44 -69 151 -67 180 0 10 5 2 11 -17 5 -19
15 -39 22 -45 7 -5 16 -23 21 -40 9 -37 12 -30 21 70 l7 80 13 -73 c7 -40 18
-90 25 -110z m803 36 c4 17 11 32 16 32 5 0 15 19 24 43 l16 42 -6 -40 c-6
-45 -60 -169 -80 -186 -11 -9 -14 -6 -14 17 l0 29 -16 -32 c-9 -18 -31 -49
-50 -70 l-34 -38 39 75 c40 75 69 173 72 240 1 19 7 -5 13 -55 10 -78 13 -86
20 -57z m-624 -140 c12 -21 23 -38 25 -38 2 0 1 19 -2 43 l-4 42 18 -36 c24
-49 118 -152 111 -121 -10 39 11 13 24 -30 10 -33 13 -37 19 -22 4 11 9 33 10
49 l2 30 7 -35 7 -35 18 40 c10 22 21 65 25 95 10 81 24 37 17 -52 -6 -67 -5
-70 10 -48 9 12 24 43 35 69 16 39 18 41 14 14 -3 -18 -4 -33 -2 -33 8 0 50
74 73 129 19 44 23 49 18 21 -16 -85 -119 -250 -175 -280 -15 -8 -17 -6 -13
13 4 17 -1 14 -27 -16 -35 -41 -50 -47 -50 -19 0 20 -51 105 -70 117 -10 6
-11 1 -6 -21 6 -28 4 -27 -34 16 -49 55 -99 151 -106 205 l-5 40 19 -50 c11
-27 29 -67 42 -87z m-102 12 c33 -53 53 -65 45 -27 -3 12 7 2 22 -23 15 -25
34 -53 42 -62 23 -26 7 -22 -35 9 -46 33 -78 72 -97 117 -21 49 -14 45 23 -14z
m607 13 c-15 -38 -116 -143 -137 -143 -6 0 -4 8 5 18 8 9 27 37 42 62 14 25
23 35 20 23 -11 -40 14 -25 47 27 17 28 33 50 35 50 2 0 -4 -17 -12 -37z"/>
<path d="M1650 5743 c0 -3 7 -15 17 -25 15 -17 14 -18 -35 -18 -28 0 -52 -3
-54 -7 -3 -7 -147 -56 -193 -66 -16 -4 -16 -5 -2 -6 33 -2 16 -16 -71 -59 -82
-40 -174 -103 -127 -87 63 21 107 33 99 26 -5 -4 -39 -29 -76 -54 -68 -48 -97
-76 -65 -64 19 7 23 -8 6 -18 -14 -10 -69 -86 -69 -97 0 -6 23 11 51 36 28 25
82 61 121 81 76 38 77 43 4 21 -43 -13 -46 -13 -34 2 41 50 188 125 303 156
11 3 -14 4 -55 2 l-75 -4 60 29 c40 19 85 31 135 36 62 6 69 8 40 13 l-35 6
53 12 c29 7 83 12 120 13 49 1 60 3 42 9 -18 6 -4 9 50 10 l75 3 -85 7 c-47 5
-110 18 -140 29 -62 24 -60 23 -60 14z"/>
<path d="M2320 5728 c-30 -11 -91 -23 -135 -27 l-80 -8 75 -3 c57 -2 68 -4 45
-10 -23 -6 -12 -8 45 -10 41 -1 98 -8 125 -15 49 -12 49 -13 15 -15 -24 -1
-10 -6 45 -15 69 -11 175 -46 175 -58 0 -3 -33 -3 -72 -1 l-73 4 59 -15 c75
-19 185 -77 239 -126 l42 -39 -44 15 c-72 25 -70 17 7 -25 41 -21 97 -58 125
-82 47 -39 50 -40 33 -13 -10 17 -33 48 -49 69 -29 37 -30 38 -6 26 l24 -13
-24 27 c-14 14 -50 43 -80 63 -31 21 -60 41 -66 45 -8 7 41 -6 100 -27 48 -17
-46 49 -129 90 -83 41 -88 45 -65 54 l24 10 -25 0 c-32 1 -184 51 -188 62 -2
5 -29 9 -60 9 l-55 0 23 25 c28 29 23 30 -50 3z"/>
<path d="M1653 5506 l26 -33 -45 -7 c-59 -8 -123 -36 -174 -77 -48 -39 -54
-61 -7 -25 46 35 112 57 176 57 52 1 54 2 31 15 -22 12 -15 13 60 8 l85 -4
-47 15 c-60 19 -70 35 -19 28 41 -6 106 11 117 29 4 7 2 8 -5 4 -21 -13 -128
-8 -166 8 -55 23 -60 20 -32 -18z"/>
<path d="M2345 5523 c-24 -8 -65 -13 -102 -11 -33 2 -59 0 -57 -4 10 -15 79
-30 116 -24 53 9 41 -9 -20 -29 l-47 -15 85 4 c79 4 83 4 55 -9 -29 -14 -28
-14 35 -15 67 0 121 -19 183 -61 l32 -22 -35 37 c-41 44 -116 81 -182 91 l-48
7 20 28 c32 45 29 46 -35 23z"/>
<path d="M1164 5259 c-23 -11 -50 -29 -60 -40 -17 -19 -17 -20 2 -13 30 10
-35 -42 -82 -66 -22 -11 -49 -20 -60 -20 -14 -1 -11 -4 10 -13 l30 -13 -32
-13 c-41 -17 -63 -42 -30 -34 18 4 15 -1 -14 -22 -44 -33 -92 -104 -106 -157
-6 -21 -9 -38 -8 -38 2 0 17 22 35 50 18 28 53 63 81 81 49 32 63 52 20 29
-12 -6 -24 -9 -27 -7 -5 6 24 22 130 74 67 32 91 52 41 32 -32 -12 -47 -1 -20
15 10 6 28 19 40 29 22 19 21 19 -31 1 -31 -11 62 62 143 113 15 9 11 10 -21
3 l-40 -9 25 19 c32 25 25 25 -26 -1z"/>
<path d="M2841 5261 l24 -20 -37 9 c-42 9 -50 4 -15 -9 32 -13 166 -115 142
-109 -11 3 -29 9 -40 12 l-20 7 20 -15 c11 -8 29 -22 40 -30 26 -19 14 -31
-15 -16 -18 9 -21 9 -15 0 4 -7 40 -27 79 -45 68 -32 134 -74 94 -61 -53 18
-53 18 -33 5 52 -32 101 -77 127 -119 26 -40 28 -42 22 -15 -12 54 -60 129
-105 164 -42 33 -43 34 -14 27 28 -6 28 -5 -10 19 -22 14 -44 25 -50 25 -5 1
4 7 20 14 l30 13 -36 7 c-20 3 -62 25 -93 47 -58 41 -69 53 -38 42 32 -12 -8
27 -49 48 -48 24 -58 24 -28 0z"/>
<path d="M933 4887 c-75 -56 -164 -167 -133 -167 6 0 4 -9 -4 -22 -8 -13 -22
-41 -32 -63 l-16 -40 58 54 c33 30 61 56 64 59 2 2 -8 -1 -23 -7 -37 -14 -34
-4 11 42 23 24 30 35 18 31 -28 -11 36 77 88 122 55 47 40 42 -31 -9z"/>
<path d="M3082 4883 c44 -44 88 -98 88 -107 0 -3 -8 -3 -17 0 -12 4 -10 -1 8
-17 14 -13 32 -33 40 -43 13 -18 12 -19 -16 -13 l-30 7 30 -22 c17 -12 45 -38
64 -58 30 -32 33 -33 26 -10 -4 14 -16 40 -26 58 -22 38 -24 46 -8 36 7 -4 3
8 -7 27 -23 42 -130 151 -164 168 -20 11 -18 6 12 -26z"/>
<path d="M868 4670 c-9 -6 -26 -24 -38 -40 -19 -27 -19 -29 -3 -23 33 11 -71
-89 -112 -108 -51 -23 -30 -33 55 -27 61 4 69 1 48 -20 -6 -6 -9 -14 -6 -17
10 -10 69 47 64 62 -3 8 -2 11 3 8 5 -3 12 -1 15 4 8 12 -33 7 -61 -7 -12 -7
-32 -12 -45 -12 -22 0 -21 2 10 26 18 14 30 29 27 34 -3 4 16 32 42 60 40 45
44 52 23 45 -22 -7 -23 -6 -11 9 15 18 13 20 -11 6z"/>
<path d="M3156 4667 c6 -15 3 -16 -22 -7 l-29 11 31 -25 c34 -28 65 -70 68
-94 2 -8 16 -26 32 -39 23 -18 25 -23 11 -23 -10 0 -33 7 -52 14 -26 11 -35
12 -35 3 0 -7 -4 -6 -10 3 -6 9 -10 10 -10 3 0 -14 69 -83 83 -83 6 0 3 8 -6
18 -10 10 -17 21 -17 23 0 3 27 3 60 1 33 -2 67 -1 77 3 15 5 13 9 -14 20 -34
15 -123 92 -123 107 0 5 5 6 11 2 19 -11 -7 29 -36 56 -19 18 -24 20 -19 7z"/>
<path d="M2458 3815 c2 -14 6 -25 8 -25 2 0 4 11 4 25 0 14 -4 25 -9 25 -4 0
-6 -11 -3 -25z"/>
<path d="M1751 3688 c0 -14 -4 -35 -7 -45 -5 -17 -5 -17 6 0 6 10 9 30 7 45
l-4 27 -2 -27z"/>
<path d="M2530 3685 c-7 -9 -10 -18 -7 -21 3 -3 10 4 17 15 13 25 8 27 -10 6z"/>
<path d="M2200 3623 c0 -17 6 -23 23 -23 16 0 18 3 8 9 -7 5 -17 15 -22 22 -6
10 -9 8 -9 -8z"/>
<path d="M1690 3140 c-44 -23 -75 -56 -61 -65 6 -3 11 -12 11 -18 0 -8 -3 -7
-9 2 -14 22 0 -81 15 -111 8 -15 20 -30 26 -34 7 -5 5 4 -4 19 -27 40 -22 44
12 12 18 -17 28 -35 25 -44 -4 -11 0 -10 15 4 11 10 20 13 20 7 0 -7 12 -15
26 -18 18 -5 22 -9 13 -15 -20 -12 56 -22 118 -15 52 6 55 5 42 -11 -8 -10 -1
-7 18 7 18 13 46 23 63 23 17 0 45 -10 63 -23 19 -14 26 -17 18 -7 -13 16 -10
17 42 11 63 -7 138 3 117 16 -9 5 -3 10 17 14 17 4 49 23 72 42 43 37 53 35
24 -5 -9 -14 -11 -21 -5 -17 20 12 39 59 45 110 3 30 1 43 -4 35 -6 -9 -9 -10
-9 -2 0 6 5 15 11 18 14 10 -17 43 -63 66 -36 18 -36 18 -51 -4 -25 -38 -130
-138 -182 -173 -74 -50 -124 -48 -201 9 -33 24 -88 75 -124 114 l-66 71 -34
-18z m-2 -123 c7 -18 26 -46 43 -63 30 -28 31 -28 19 -4 l-13 25 29 -26 c16
-15 43 -34 59 -43 l30 -17 -35 7 c-52 10 -125 49 -143 78 -18 26 -23 76 -9 76
4 0 13 -15 20 -33z m692 2 c0 -42 -51 -90 -120 -112 -54 -18 -82 -16 -39 3 13
5 35 18 49 27 18 14 22 14 16 3 -5 -8 5 -2 22 14 17 16 38 44 47 62 20 42 25
43 25 3z"/>
<path d="M1758 3144 c18 -34 132 -145 180 -175 85 -54 151 -32 272 92 87 88
110 135 30 63 -21 -20 -44 -33 -50 -29 -5 3 -10 -2 -10 -13 0 -11 -19 -32 -45
-51 -25 -18 -45 -35 -45 -39 0 -14 -106 -5 -138 12 -19 9 -66 45 -105 80 -87
75 -103 86 -89 60z"/>
<path d="M2008 3053 c6 -2 18 -2 25 0 6 3 1 5 -13 5 -14 0 -19 -2 -12 -5z"/>
<path d="M2013 2755 c0 -38 2 -53 4 -32 2 20 2 52 0 70 -2 17 -4 1 -4 -38z"/>
<path d="M1715 2780 c-16 -17 -16 -20 -3 -15 9 4 19 13 22 21 7 19 2 18 -19
-6z"/>
<path d="M2296 2786 c3 -8 13 -17 22 -21 13 -5 13 -2 -3 15 -21 24 -26 25 -19
6z"/>
<path d="M1837 2728 c-28 -38 -46 -72 -24 -45 8 9 18 17 23 17 5 0 15 14 21
30 14 38 10 38 -20 -2z"/>
<path d="M2180 2740 c7 -14 24 -36 38 -50 l25 -25 -19 33 c-10 18 -28 41 -38
50 -18 16 -18 16 -6 -8z"/>
<path d="M1559 2685 c-11 -25 -19 -50 -17 -55 2 -6 13 15 25 45 26 66 20 73
-8 10z"/>
<path d="M2473 2676 c12 -30 23 -53 26 -51 5 6 -29 94 -39 100 -4 3 1 -19 13
-49z"/>
<path d="M1688 2593 c7 -3 16 -2 19 1 4 3 -2 6 -13 5 -11 0 -14 -3 -6 -6z"/>
<path d="M2338 2593 c7 -3 16 -2 19 1 4 3 -2 6 -13 5 -11 0 -14 -3 -6 -6z"/>
<path d="M1400 3240 c-13 -8 -13 -10 2 -10 9 0 20 5 23 10 8 13 -5 13 -25 0z"/>
<path d="M2652 2025 c0 -16 2 -22 5 -12 2 9 2 23 0 30 -3 6 -5 -1 -5 -18z"/>
<path d="M2185 1500 c-3 -6 1 -7 9 -4 18 7 21 14 7 14 -6 0 -13 -4 -16 -10z"/>
<path d="M2272 1390 c-34 -42 -67 -62 -115 -74 -20 -5 -27 -3 -22 5 4 6 -3 4
-16 -4 -30 -19 -199 -27 -220 -11 -8 6 -31 17 -51 23 -20 7 -53 30 -72 52 -23
24 -36 33 -36 23 0 -42 48 -98 110 -127 39 -19 62 -22 171 -22 90 0 130 4 142
13 9 8 20 11 25 8 10 -6 57 26 84 59 13 15 42 96 34 95 0 0 -16 -18 -34 -40z"/>
<path d="M1527 1641 c6 -22 27 -23 40 -2 8 13 5 16 -17 18 -22 2 -27 -2 -23
-16z"/>
<path d="M2460 1648 c0 -7 33 -28 44 -28 2 0 4 9 3 20 -1 14 -8 19 -24 18 -13
-2 -23 -6 -23 -10z"/>
<path d="M1514 1542 c-1 -23 3 -27 28 -27 16 0 28 5 28 13 0 6 -7 12 -16 12
-10 0 -14 6 -10 15 3 10 -1 15 -12 15 -12 0 -17 -9 -18 -28z"/>
<path d="M2496 1555 c4 -9 0 -15 -10 -15 -16 0 -23 -19 -8 -21 4 0 15 -2 24
-4 20 -4 33 10 19 20 -6 3 -8 12 -4 20 3 9 -1 15 -11 15 -10 0 -13 -6 -10 -15z"/>
</g>
</svg>
